<svg width="106" height="54" viewBox="0 0 106 54" fill="none" xmlns="http://www.w3.org/2000/svg">
<path d="M9.22437 0.493408C10.3386 0.493408 11.2857 0.651258 12.0657 0.966957C12.8456 1.28266 13.607 1.72835 14.3498 2.30404C14.5541 2.47117 14.7305 2.55474 14.8791 2.55474C15.2505 2.55474 15.4919 1.99762 15.6034 0.88339H16.244C16.1698 2.09048 16.1326 4.22609 16.1326 7.29023H15.4919C15.2877 6.08315 15.102 5.21962 14.9348 4.69964C14.7677 4.16109 14.4891 3.6504 14.0991 3.16757C13.542 2.44332 12.8271 1.90477 11.9542 1.55193C11.1 1.18052 10.1715 0.994812 9.16866 0.994812C7.96157 0.994812 6.90305 1.39408 5.99309 2.19261C5.1017 2.99115 4.40531 4.13324 3.9039 5.61888C3.4025 7.08596 3.1518 8.81302 3.1518 10.8001C3.1518 12.8243 3.42107 14.5606 3.95961 16.0091C4.49816 17.4576 5.24098 18.5626 6.18808 19.324C7.15375 20.0668 8.24013 20.4382 9.44721 20.4382C10.3757 20.4382 11.2764 20.2618 12.1492 19.9089C13.022 19.5561 13.7092 19.0268 14.2106 18.3211C14.582 17.8012 14.8512 17.2441 15.0184 16.6498C15.1855 16.0555 15.3434 15.1456 15.4919 13.9199H16.1326C16.1326 17.1141 16.1698 19.3425 16.244 20.6053H15.6034C15.5476 20.0111 15.4641 19.5932 15.3527 19.3518C15.2598 19.0918 15.1205 18.9618 14.9348 18.9618C14.7863 18.9618 14.5913 19.0361 14.3498 19.1847C13.5142 19.7789 12.7156 20.2339 11.9542 20.5496C11.1928 20.8467 10.2736 20.9953 9.19651 20.9953C7.43231 20.9953 5.88167 20.596 4.54459 19.7975C3.22608 18.999 2.19541 17.8476 1.45259 16.3434C0.728337 14.8206 0.366211 13.01 0.366211 10.9115C0.366211 8.86873 0.737622 7.0581 1.48044 5.4796C2.24184 3.90111 3.29107 2.67545 4.62815 1.80263C5.98381 0.929816 7.51588 0.493408 9.22437 0.493408Z" fill="white"/>
<path d="M33.7229 0.966957C34.5586 0.966957 35.255 0.939101 35.8121 0.88339V1.44051C34.8836 1.66335 34.15 2.47117 33.6115 3.86397L27.0654 20.7446H26.8425H26.6197L19.8229 3.22328C19.3772 2.07191 18.7365 1.47765 17.9008 1.44051V0.88339C18.6436 0.939101 19.6372 0.966957 20.8814 0.966957C22.4785 0.966957 23.667 0.939101 24.4469 0.88339V1.44051C23.7412 1.47765 23.2306 1.5705 22.9149 1.71906C22.6177 1.84906 22.4692 2.09976 22.4692 2.47117C22.4692 2.78687 22.5806 3.22328 22.8034 3.7804L27.8453 17.1791L32.3858 5.39604C32.7573 4.39323 32.943 3.63183 32.943 3.11186C32.943 2.53617 32.7387 2.11833 32.3301 1.85834C31.9402 1.59836 31.3366 1.45908 30.5195 1.44051V0.88339C31.578 0.939101 32.6458 0.966957 33.7229 0.966957Z" fill="white"/>
<path d="M58.7899 0.966957C59.6256 0.966957 60.322 0.939101 60.8791 0.88339V1.44051C59.8392 1.68192 59.1056 2.48974 58.6785 3.86397L53.4137 20.7446H53.1909H52.968L48.1211 6.39884L43.6921 20.7446H43.4692H43.2464L37.3409 3.22328C36.9509 2.07191 36.3103 1.47765 35.4189 1.44051V0.88339C36.1803 0.939101 37.1738 0.966957 38.3994 0.966957C39.7365 0.966957 40.7393 0.939101 41.4079 0.88339V1.44051C40.9065 1.47765 40.5536 1.5705 40.3493 1.71906C40.1451 1.86763 40.0429 2.09976 40.0429 2.41546C40.0429 2.71259 40.1451 3.16757 40.3493 3.7804L44.4163 16.2041L47.8147 5.42389L47.0626 3.22328C46.6912 2.07191 46.1434 1.47765 45.4191 1.44051V0.88339C46.0877 0.939101 46.9883 0.966957 48.1211 0.966957C49.7182 0.966957 50.9067 0.939101 51.6867 0.88339V1.44051C50.981 1.47765 50.4889 1.56122 50.2103 1.69121C49.9318 1.80263 49.7925 2.05333 49.7925 2.44332C49.7925 2.77759 49.8853 3.22328 50.071 3.7804L54.0823 16.1762L57.5085 5.39604C57.8057 4.48608 57.9542 3.73397 57.9542 3.13971C57.9542 2.52689 57.7685 2.09976 57.3971 1.85834C57.0257 1.59836 56.4222 1.45908 55.5865 1.44051V0.88339C56.645 0.939101 57.7128 0.966957 58.7899 0.966957Z" fill="white"/>
<path d="M4.90648 45.1367V50.1507C4.90648 50.8564 4.98077 51.3671 5.12933 51.6828C5.2779 51.9985 5.53788 52.212 5.90929 52.3235C6.28071 52.4349 6.88425 52.5092 7.71992 52.5463V53.1034C6.75425 53.0477 5.38932 53.0199 3.62512 53.0199C2.02805 53.0199 0.839534 53.0477 0.0595703 53.1034V52.5463C0.72811 52.5092 1.21094 52.4349 1.50807 52.3235C1.82377 52.212 2.03733 51.9985 2.14876 51.6828C2.26018 51.3671 2.31589 50.8564 2.31589 50.1507V36.3342C2.31589 35.6285 2.26018 35.1178 2.14876 34.8021C2.03733 34.4864 1.82377 34.2729 1.50807 34.1615C1.21094 34.05 0.72811 33.9757 0.0595703 33.9386V33.3815C0.839534 33.4372 1.97234 33.4651 3.45798 33.4651L6.46641 33.4372C6.81925 33.4186 7.21852 33.4093 7.66421 33.4093C9.83697 33.4093 11.499 33.9108 12.6504 34.9136C13.8018 35.8978 14.3775 37.2256 14.3775 38.8969C14.3775 39.9183 14.1453 40.9026 13.6811 41.8497C13.2354 42.7782 12.4647 43.5582 11.369 44.1896C10.2919 44.821 8.85273 45.1367 7.05138 45.1367H4.90648ZM6.96782 33.9386C6.39213 33.9386 5.95572 34.0036 5.65859 34.1336C5.38003 34.2636 5.18504 34.4957 5.07362 34.83C4.9622 35.1643 4.90648 35.6657 4.90648 36.3342V44.5795H6.77283C8.59274 44.5795 9.84625 44.0967 10.5334 43.131C11.239 42.1468 11.5919 40.8376 11.5919 39.2034C11.5919 37.402 11.2298 36.0742 10.5055 35.22C9.79982 34.3657 8.6206 33.9386 6.96782 33.9386Z" fill="white"/>
<path d="M19.5343 53.2984C18.3643 53.2984 17.4915 53.0106 16.9158 52.4349C16.3587 51.8406 16.0802 51.0235 16.0802 49.9836C16.0802 49.1479 16.303 48.4608 16.7487 47.9222C17.213 47.3837 17.7515 46.9566 18.3643 46.6409C18.9957 46.3252 19.8221 45.9909 20.8435 45.6381C21.8835 45.2852 22.6541 44.9602 23.1555 44.6631C23.6569 44.366 23.9076 43.9667 23.9076 43.4653V41.7382C23.9076 40.6612 23.6755 39.9276 23.2112 39.5376C22.7656 39.1291 22.1342 38.9248 21.3171 38.9248C20.0171 38.9248 19.0979 39.2591 18.5593 39.9276C18.9307 40.0205 19.2371 40.2155 19.4786 40.5126C19.7386 40.8097 19.8685 41.1811 19.8685 41.6268C19.8685 42.0911 19.72 42.4625 19.4229 42.7411C19.1257 43.001 18.745 43.131 18.2808 43.131C17.7608 43.131 17.3708 42.9732 17.1108 42.6575C16.8508 42.3232 16.7208 41.9239 16.7208 41.4597C16.7208 41.014 16.823 40.6426 17.0273 40.3455C17.2501 40.0483 17.5751 39.7512 18.0022 39.4541C18.4479 39.1384 19.0143 38.8784 19.7014 38.6741C20.3885 38.4698 21.1406 38.3677 21.9577 38.3677C23.4062 38.3677 24.5019 38.7112 25.2447 39.3984C25.709 39.8255 26.0154 40.3455 26.164 40.9583C26.3311 41.5525 26.4147 42.3418 26.4147 43.326V51.0699C26.4147 51.5342 26.4797 51.8685 26.6097 52.0728C26.7397 52.277 26.9625 52.3792 27.2782 52.3792C27.501 52.3792 27.7053 52.3327 27.891 52.2399C28.0953 52.1285 28.3089 51.9799 28.5317 51.7942L28.8381 52.2677C28.3553 52.6392 27.9375 52.9084 27.5846 53.0756C27.2503 53.2241 26.8232 53.2984 26.3032 53.2984C25.4119 53.2984 24.7897 53.0756 24.4369 52.6299C24.0841 52.1842 23.9076 51.5806 23.9076 50.8192C23.3505 51.7478 22.7098 52.3977 21.9856 52.7692C21.2613 53.122 20.4442 53.2984 19.5343 53.2984ZM20.7599 52.1842C21.9856 52.1842 23.0348 51.4785 23.9076 50.0671V44.6074C23.7405 44.8674 23.5084 45.0809 23.2112 45.2481C22.9141 45.4152 22.4591 45.6381 21.8463 45.9166C21.1406 46.2137 20.5649 46.5016 20.1193 46.7801C19.6921 47.0401 19.3207 47.4023 19.005 47.8665C18.6893 48.3308 18.5315 48.925 18.5315 49.6493C18.5315 50.485 18.7357 51.1164 19.1443 51.5435C19.5528 51.9706 20.0914 52.1842 20.7599 52.1842Z" fill="white"/>
<path d="M38.3383 38.3677C39.0811 38.3677 39.6846 38.5812 40.1489 39.0084C40.6317 39.4355 40.8731 39.9555 40.8731 40.5683C40.8731 41.0511 40.7246 41.469 40.4275 41.8218C40.1489 42.1561 39.7682 42.3232 39.2854 42.3232C38.8768 42.3232 38.524 42.1932 38.2268 41.9332C37.9483 41.6732 37.809 41.3204 37.809 40.8747C37.809 40.2619 38.1247 39.7605 38.7561 39.3705C38.6261 39.1848 38.4311 39.0919 38.1711 39.0919C37.4469 39.0919 36.7876 39.3798 36.1934 39.9555C35.5991 40.5126 35.1348 41.1997 34.8006 42.0168C34.4663 42.8339 34.2992 43.6046 34.2992 44.3288V50.2343C34.2992 51.0885 34.5406 51.6828 35.0234 52.017C35.5248 52.3513 36.2677 52.5184 37.2519 52.5184V53.1034L36.5834 53.0756C34.6892 53.0199 33.4821 52.992 32.9621 52.992C32.4793 52.992 31.3836 53.0291 29.6751 53.1034V52.5184C30.4551 52.5184 31.0029 52.3792 31.3186 52.1006C31.6343 51.8035 31.7921 51.2742 31.7921 50.5128V41.794C31.7921 40.9397 31.6343 40.3176 31.3186 39.9276C31.0029 39.5376 30.4551 39.3426 29.6751 39.3426V38.7577C30.2694 38.8134 30.8451 38.8412 31.4022 38.8412C32.5721 38.8412 33.5378 38.7112 34.2992 38.4513V41.9332C34.6334 41.0047 35.1627 40.1783 35.887 39.4541C36.6298 38.7298 37.4469 38.3677 38.3383 38.3677Z" fill="white"/>
<path d="M46.5644 38.7855H50.6871V39.3426H46.5644V50.1228C46.5644 50.9585 46.713 51.5621 47.0101 51.9335C47.3258 52.3049 47.7715 52.4906 48.3472 52.4906C48.9229 52.4906 49.415 52.2585 49.8236 51.7942C50.2321 51.3299 50.5757 50.5685 50.8542 49.51L51.4114 49.6493C50.9471 52.212 49.74 53.4934 47.7901 53.4934C47.1587 53.4934 46.6387 53.4191 46.2302 53.2706C45.8216 53.122 45.4595 52.8899 45.1438 52.5742C44.7352 52.1656 44.4474 51.6642 44.2803 51.0699C44.1317 50.4757 44.0574 49.6772 44.0574 48.6743V39.3426H41.3833V38.7855H44.0574V34.5236C45.0974 34.4864 45.933 34.3564 46.5644 34.1336V38.7855Z" fill="white"/>
<path d="M61.2867 38.3677C62.5866 38.3677 63.5709 38.7205 64.2394 39.4262C64.5922 39.7976 64.8429 40.2619 64.9915 40.819C65.1401 41.3761 65.2144 42.1282 65.2144 43.0753V50.5128C65.2144 51.2742 65.3722 51.8035 65.6879 52.1006C66.0036 52.3792 66.5514 52.5184 67.3314 52.5184V53.1034C65.6229 53.0291 64.5087 52.992 63.9887 52.992C63.4687 52.992 62.4288 53.0291 60.8688 53.1034V52.5184C61.556 52.5184 62.0295 52.3792 62.2895 52.1006C62.5681 51.8035 62.7073 51.2742 62.7073 50.5128V42.4625C62.7073 41.4225 62.5588 40.6333 62.2616 40.0947C61.9645 39.5376 61.361 39.2591 60.451 39.2591C59.6896 39.2591 59.0118 39.4819 58.4175 39.9276C57.8233 40.3733 57.359 40.9861 57.0247 41.7661C56.709 42.5275 56.5512 43.3817 56.5512 44.3288V50.5128C56.5512 51.2742 56.6812 51.8035 56.9412 52.1006C57.2197 52.3792 57.7026 52.5184 58.3897 52.5184V53.1034C56.8298 53.0291 55.7898 52.992 55.2698 52.992C54.7499 52.992 53.6356 53.0291 51.9271 53.1034V52.5184C52.7071 52.5184 53.2549 52.3792 53.5706 52.1006C53.8863 51.8035 54.0442 51.2742 54.0442 50.5128V41.794C54.0442 40.9397 53.8863 40.3176 53.5706 39.9276C53.2549 39.5376 52.7071 39.3426 51.9271 39.3426V38.7577C52.5214 38.8134 53.0971 38.8412 53.6542 38.8412C54.8241 38.8412 55.7898 38.7112 56.5512 38.4513V41.7382C57.0155 40.5497 57.6561 39.6955 58.4732 39.1755C59.3089 38.637 60.2467 38.3677 61.2867 38.3677Z" fill="white"/>
<path d="M80.6376 49.7607C80.3033 50.7821 79.6719 51.6642 78.7434 52.407C77.8334 53.1313 76.7285 53.4934 75.4285 53.4934C74.11 53.4934 72.9679 53.1963 72.0023 52.602C71.0366 51.9892 70.2938 51.1442 69.7738 50.0671C69.2724 48.9715 69.0217 47.7087 69.0217 46.2787C69.0217 44.6631 69.2817 43.261 69.8016 42.0725C70.3216 40.884 71.0552 39.974 72.0023 39.3426C72.9494 38.6927 74.0543 38.3677 75.3171 38.3677C76.9884 38.3677 78.2698 38.8784 79.1612 39.8998C80.0712 40.9026 80.5261 42.4346 80.5261 44.496H71.8073C71.7516 45.0159 71.7237 45.6102 71.7237 46.2787C71.7237 47.5044 71.9187 48.5722 72.3087 49.4822C72.7172 50.3921 73.2465 51.0978 73.8965 51.5992C74.565 52.082 75.2614 52.3235 75.9856 52.3235C76.877 52.3235 77.6663 52.1099 78.3534 51.6828C79.0405 51.2557 79.6162 50.5407 80.0804 49.5379L80.6376 49.7607ZM75.2057 38.8969C74.3329 38.8969 73.5807 39.3241 72.9494 40.1783C72.318 41.0326 71.928 42.2954 71.7794 43.9667H77.852C77.8891 42.5182 77.6756 41.3111 77.2113 40.3455C76.7656 39.3798 76.0971 38.8969 75.2057 38.8969Z" fill="white"/>
<path d="M91.3024 38.3677C92.0452 38.3677 92.6488 38.5812 93.1131 39.0084C93.5959 39.4355 93.8373 39.9555 93.8373 40.5683C93.8373 41.0511 93.6887 41.469 93.3916 41.8218C93.1131 42.1561 92.7324 42.3232 92.2495 42.3232C91.841 42.3232 91.4881 42.1932 91.191 41.9332C90.9124 41.6732 90.7732 41.3204 90.7732 40.8747C90.7732 40.2619 91.0889 39.7605 91.7203 39.3705C91.5903 39.1848 91.3953 39.0919 91.1353 39.0919C90.411 39.0919 89.7518 39.3798 89.1575 39.9555C88.5633 40.5126 88.099 41.1997 87.7647 42.0168C87.4305 42.8339 87.2633 43.6046 87.2633 44.3288V50.2343C87.2633 51.0885 87.5047 51.6828 87.9876 52.017C88.489 52.3513 89.2318 52.5184 90.216 52.5184V53.1034L89.5475 53.0756C87.6533 53.0199 86.4462 52.992 85.9262 52.992C85.4434 52.992 84.3477 53.0291 82.6393 53.1034V52.5184C83.4192 52.5184 83.9671 52.3792 84.2828 52.1006C84.5984 51.8035 84.7563 51.2742 84.7563 50.5128V41.794C84.7563 40.9397 84.5984 40.3176 84.2828 39.9276C83.9671 39.5376 83.4192 39.3426 82.6393 39.3426V38.7577C83.2335 38.8134 83.8092 38.8412 84.3663 38.8412C85.5363 38.8412 86.5019 38.7112 87.2633 38.4513V41.9332C87.5976 41.0047 88.1269 40.1783 88.8511 39.4541C89.5939 38.7298 90.411 38.3677 91.3024 38.3677Z" fill="white"/>
<path d="M100.03 38.3677C100.699 38.3677 101.293 38.4698 101.813 38.6741C102.333 38.8784 102.751 39.1198 103.066 39.3984C103.271 39.5469 103.438 39.6212 103.568 39.6212C103.902 39.6212 104.106 39.2126 104.181 38.3955H104.821C104.747 39.3055 104.71 40.884 104.71 43.131H104.069C103.865 41.9054 103.466 40.8933 102.871 40.0947C102.296 39.2962 101.432 38.8969 100.281 38.8969C99.6122 38.8969 99.0643 39.0919 98.6372 39.4819C98.2101 39.8533 97.9965 40.3733 97.9965 41.0418C97.9965 41.6918 98.2194 42.2396 98.6651 42.6853C99.1108 43.1125 99.8257 43.6324 100.81 44.2453C100.977 44.3381 101.228 44.496 101.562 44.7188C102.416 45.2759 103.103 45.7681 103.623 46.1952C104.143 46.6223 104.561 47.1144 104.877 47.6715C105.211 48.2287 105.378 48.8693 105.378 49.5936C105.378 50.8192 104.914 51.7756 103.986 52.4627C103.076 53.1498 101.952 53.4934 100.615 53.4934C99.7793 53.4934 99.0458 53.3634 98.4144 53.1034C98.0058 52.8991 97.6251 52.6484 97.2723 52.3513C97.198 52.277 97.1144 52.2399 97.0216 52.2399C96.8916 52.2399 96.7709 52.3327 96.6594 52.5184C96.5666 52.7042 96.4923 52.9641 96.4366 53.2984H95.7959C95.8702 52.2399 95.9073 50.3828 95.9073 47.7272H96.548C96.7523 49.4729 97.1237 50.7821 97.6623 51.6549C98.2008 52.5092 99.12 52.9363 100.42 52.9363C101.07 52.9363 101.646 52.7227 102.147 52.2956C102.648 51.8685 102.899 51.1999 102.899 50.29C102.899 49.5657 102.648 48.9529 102.147 48.4515C101.664 47.9501 100.866 47.3465 99.7514 46.6409C98.8415 46.0652 98.1358 45.5916 97.6344 45.2202C97.1516 44.8488 96.743 44.3938 96.4087 43.8553C96.0745 43.3167 95.9073 42.6853 95.9073 41.9611C95.9073 40.7911 96.2973 39.8998 97.0773 39.2869C97.8572 38.6741 98.8415 38.3677 100.03 38.3677Z" fill="white"/>
<path d="M72.0105 6.677L73.3134 10.687H77.5297L74.1186 13.1653L75.4216 17.1753L72.0105 14.697L68.5994 17.1753L69.9023 13.1653L66.4912 10.687H70.7076L72.0105 6.677Z" fill="white"/>
<path d="M85.9392 6.677L87.2421 10.687H91.4585L88.0474 13.1653L89.3503 17.1753L85.9392 14.697L82.5281 17.1753L83.831 13.1653L80.4199 10.687H84.6363L85.9392 6.677Z" fill="white"/>
<path d="M99.8679 6.67693L101.171 10.6869H105.387L101.976 13.1652L103.279 17.1752L99.8679 14.6969L96.4568 17.1752L97.7597 13.1652L94.3486 10.6869H98.565L99.8679 6.67693Z" fill="white"/>
</svg>
