<svg width="173" height="56" viewBox="0 0 173 56" fill="none" xmlns="http://www.w3.org/2000/svg">
<path fill-rule="evenodd" clip-rule="evenodd" d="M4.82321 9.32854C7.00759 14.0128 9.85402 20.143 11.1485 22.9516L13.5022 28.0578L7.32106 41.3966C3.92132 48.7329 1.13992 54.8356 1.13992 54.9578C1.13992 55.0803 7.84376 55.1804 16.0376 55.1804H30.9352L32.8126 54.0593L34.6901 52.9379L41.0147 40.5532L47.3397 28.1682L42.6613 18.8774C40.0884 13.7675 37.1095 7.92769 36.0417 5.90023C33.1629 0.434474 34.6474 0.811956 16.0276 0.811956H0.851562L4.82321 9.32854ZM31.7043 19.716L35.9189 27.9525L31.7762 36.233L27.6332 44.5132H22.9998C18.7305 44.5132 18.3844 44.466 18.5932 43.911C18.7178 43.5796 20.3168 39.9053 22.1468 35.7454L25.4732 28.1823L24.4475 25.7664C23.8835 24.4378 22.2796 20.7648 20.8836 17.6046C19.4872 14.444 18.3451 11.7731 18.3451 11.6688C18.3451 11.5645 20.4025 11.4792 22.9172 11.4792H27.4894L31.7043 19.716ZM62.1286 27.171L62.2184 41.1427L67.3765 41.0907C73.0095 41.034 73.8364 40.8037 75.2582 38.8964C75.9578 37.958 75.9826 37.5623 75.9826 27.3689C75.9826 17.3782 75.9451 16.7485 75.2827 15.6084C74.0852 13.5476 72.9094 13.2007 67.1181 13.2004L62.0388 13.1997L62.1286 27.171ZM79.5995 14.146C79.7708 14.6666 80.7577 17.8021 81.7924 21.1141C82.8268 24.4261 83.8698 27.6005 84.11 28.1682C84.3749 28.7945 84.6217 31.5501 84.738 35.1763L84.9293 41.152L86.9082 41.1981L88.8868 41.2442V36.3249C88.8865 32.0625 88.9987 31.0518 89.7265 28.7546C90.1886 27.2966 91.4769 23.2389 92.5891 19.7377L94.6117 13.3718L92.5695 13.2682C91.4463 13.2114 90.4611 13.2307 90.3806 13.3115C90.2997 13.3921 89.5503 15.9742 88.7144 19.0495C87.8786 22.1247 87.1254 24.7103 87.0404 24.7957C86.878 24.9581 86.5445 23.8635 84.7407 17.2429L83.6392 13.1997H81.4631H79.2874L79.5995 14.146ZM98.6037 27.158L98.6935 41.1503L100.667 41.1974L102.64 41.2442L102.731 32.8515L102.823 24.4591L105.961 32.6794L109.099 40.9001L110.882 41.0835C111.862 41.184 112.734 41.1971 112.819 41.1121C112.904 41.0271 112.974 34.7121 112.974 27.0785V13.1997H110.915H108.857L108.765 21.3722L108.672 29.5447L106.812 24.7272C105.789 22.0776 104.372 18.4387 103.662 16.6407L102.373 13.3718L100.443 13.2685L98.5135 13.1653L98.6037 27.158ZM122.451 13.6298C122.304 14.0944 121.854 16.3999 119.175 30.4049C118.216 35.4202 117.354 39.8723 117.261 40.2979C117.099 41.0326 117.194 41.0721 119.124 41.0721C121.405 41.0721 121.322 41.1768 121.774 37.7171L122.009 35.9106H124.671H127.332L127.748 38.4914L128.164 41.0721H130.231H132.298L132.105 40.1259C131.999 39.6052 131.599 37.5537 131.217 35.5665C130.834 33.5793 129.996 29.2436 129.355 25.9316C128.712 22.6196 127.908 18.3998 127.566 16.5547L126.943 13.1997H124.765C123.325 13.1997 122.541 13.3453 122.451 13.6298ZM136.455 27.1752L136.545 41.1503L138.518 41.1974L140.49 41.2442L140.582 33.5019L140.674 25.7595L142.022 31.0931C144.146 39.4989 143.831 38.7192 145.055 38.5977L146.124 38.4914L147.7 32.1519L149.277 25.8125L149.369 33.411L149.462 41.0092L151.377 41.1269C152.431 41.1912 153.357 41.1795 153.435 41.1007C153.514 41.0219 153.578 34.7121 153.578 27.0785V13.1997H151.527H149.475L149.088 14.6381C147.333 21.1547 145.041 28.7209 144.896 28.4724C144.798 28.3052 143.915 25.3036 142.932 21.8023C140.207 12.0927 140.789 13.1997 138.407 13.1997H136.365L136.455 27.1752ZM159.428 13.8879C158.764 14.5513 158.74 15.0348 158.74 27.2546C158.74 39.1672 158.778 39.9679 159.378 40.5109C159.934 41.0136 160.794 41.0766 165.992 40.9944L171.968 40.9001L172.41 40.0398C172.75 39.3767 172.831 36.3163 172.764 26.6779C172.68 14.7537 172.645 14.1536 172.008 13.688C171.496 13.3136 170.03 13.1997 165.728 13.1997C160.575 13.1997 160.06 13.2561 159.428 13.8879ZM70.9163 17.1765C71.6751 17.7078 71.6813 17.7876 71.6813 27.1359C71.6813 36.4842 71.6751 36.564 70.9163 37.0953C70.4387 37.4301 69.4061 37.6311 68.1635 37.6311H66.1756V27.1359V16.6407H68.1635C69.4061 16.6407 70.4387 16.8417 70.9163 17.1765ZM168.719 27.1359V37.6311H165.794H162.869V27.1359V16.6407H165.794H168.719V27.1359ZM125.655 25.6735C126.099 28.5598 126.541 31.2697 126.637 31.6953C126.804 32.4338 126.714 32.4695 124.683 32.4695H122.554L122.735 31.5233C122.835 31.0026 123.269 28.2928 123.7 25.5014C124.131 22.7101 124.566 20.4259 124.666 20.4259C124.766 20.4259 125.211 22.7871 125.655 25.6735Z" fill="white"/>
</svg>
