<svg width="166" height="58" viewBox="0 0 166 58" fill="none" xmlns="http://www.w3.org/2000/svg">
<path fill-rule="evenodd" clip-rule="evenodd" d="M26.7864 1.04752C26.7864 1.23123 26.6762 1.37824 26.5384 1.37824C26.373 1.37824 26.2904 1.5436 26.2904 1.87432C26.2904 2.20504 26.2077 2.3704 26.0423 2.3704C25.877 2.3704 25.7943 2.53576 25.7943 2.86648C25.7943 3.1972 25.7116 3.36256 25.5462 3.36256C25.4098 3.36256 25.2982 3.47418 25.2982 3.6106C25.2982 4.06617 24.8299 3.86559 24.7194 3.36256C24.6596 3.08972 24.5605 2.86549 24.4997 2.86417C24.4387 2.86301 24.2214 2.81704 24.0167 2.7623C23.6631 2.66755 23.6446 2.70889 23.6446 3.59126C23.6446 4.3066 23.5876 4.52008 23.3966 4.52008C23.2325 4.52008 23.1485 4.68412 23.1485 5.00443C23.1485 5.64619 22.7566 6.00833 22.0619 6.00833C21.6682 6.00833 21.4949 6.08406 21.4949 6.25637C21.4949 6.39279 21.3833 6.50441 21.2469 6.50441C21.1091 6.50441 20.9988 6.65141 20.9988 6.83513C20.9988 7.01884 20.8885 7.16585 20.7508 7.16585C20.5671 7.16585 20.5028 7.35883 20.5028 7.90997C20.5028 8.46112 20.4384 8.65409 20.2547 8.65409C20.0824 8.65409 20.0067 8.82739 20.0067 9.22111C20.0067 9.53282 19.8951 9.89959 19.7586 10.036C19.6222 10.1724 19.5096 10.4569 19.5083 10.668C19.5046 11.3101 19.3193 11.7959 19.0778 11.7959C18.9178 11.7959 18.8491 12.014 18.8491 12.5224C18.8491 13.0155 18.7694 13.2794 18.6011 13.344C18.4589 13.3986 18.3531 13.6455 18.3531 13.9228C18.3531 14.2001 18.2472 14.447 18.105 14.5016C17.935 14.5667 17.857 14.8325 17.857 15.3461C17.857 15.9018 17.793 16.0953 17.6089 16.0953C17.4252 16.0953 17.3609 16.2883 17.3609 16.8394C17.3609 17.3592 17.2926 17.5836 17.1344 17.5836C16.988 17.5836 16.8777 17.8514 16.8225 18.3406C16.7193 19.2565 16.8253 19.7332 17.1322 19.7332C17.2579 19.7332 17.3609 19.8821 17.3609 20.064C17.3609 20.2477 17.4712 20.3947 17.6089 20.3947C17.7454 20.3947 17.857 20.5063 17.857 20.6427C17.857 20.7791 17.9686 20.8908 18.105 20.8908C18.2704 20.8908 18.3531 21.0561 18.3531 21.3868C18.3531 21.7176 18.2704 21.8829 18.105 21.8829C17.9397 21.8829 17.857 22.0483 17.857 22.379C17.857 22.7097 17.7743 22.8751 17.6089 22.8751C17.4436 22.8751 17.3609 23.0404 17.3609 23.3712C17.3609 23.6842 17.2762 23.8672 17.1312 23.8672C16.9998 23.8672 16.8552 24.1145 16.7931 24.446C16.7334 24.7643 16.6194 25.0248 16.5397 25.0248C16.4602 25.0248 16.3459 25.248 16.2861 25.5208C16.2262 25.7937 16.0714 26.0169 15.9423 26.0169C15.7935 26.0169 15.7073 26.1922 15.7073 26.4953C15.7073 26.768 15.6006 27.0147 15.4593 27.069C15.3142 27.1245 15.2112 27.3724 15.2112 27.6654C15.2112 28.0008 15.129 28.1666 14.9632 28.1666C14.8268 28.1666 14.7151 28.2782 14.7151 28.4147C14.7151 28.5511 14.6035 28.6627 14.4671 28.6627C14.3307 28.6627 14.2191 28.7743 14.2191 28.9107C14.2191 29.0472 14.116 29.1588 13.9904 29.1588C13.8645 29.1588 13.7226 29.3076 13.675 29.4895C13.6276 29.6714 13.47 29.8202 13.3251 29.8202C13.1801 29.8202 13.0615 29.9318 13.0615 30.0683C13.0615 30.2047 12.9499 30.3163 12.8135 30.3163C12.6758 30.3163 12.5655 30.4633 12.5655 30.647C12.5655 30.8307 12.4552 30.9777 12.3174 30.9777C12.1631 30.9777 12.0694 31.1338 12.0694 31.3911C12.0694 31.6484 11.9756 31.8045 11.8213 31.8045C11.6849 31.8045 11.5733 31.9231 11.5733 32.0681C11.5733 32.213 11.4245 32.3706 11.2426 32.418C11.0607 32.4657 10.9119 32.6075 10.9119 32.7334C10.9119 32.859 10.8002 32.9621 10.6638 32.9621C10.5274 32.9621 10.4158 33.0737 10.4158 33.2101C10.4158 33.3465 10.3042 33.4581 10.1677 33.4581C10.03 33.4581 9.91969 33.6051 9.91969 33.7889C9.91969 33.9726 9.8094 34.1196 9.67165 34.1196C9.53523 34.1196 9.42361 34.2312 9.42361 34.3676C9.42361 34.504 9.31199 34.6157 9.17557 34.6157C9.01021 34.6157 8.92753 34.781 8.92753 35.1117C8.92753 35.4975 8.85411 35.6078 8.59681 35.6078C8.41309 35.6078 8.26609 35.7181 8.26609 35.8559C8.26609 35.9923 8.15447 36.1039 8.01805 36.1039C7.88163 36.1039 7.77001 36.2155 7.77001 36.3519C7.77001 36.4884 7.65839 36.6 7.52197 36.6C7.38555 36.6 7.27393 36.7116 7.27393 36.848C7.27393 36.9845 7.16231 37.0961 7.02589 37.0961C6.88814 37.0961 6.77785 37.2431 6.77785 37.4268C6.77785 37.6105 6.66755 37.7575 6.52981 37.7575C6.39338 37.7575 6.28176 37.8691 6.28176 38.0056C6.28176 38.142 6.17015 38.2536 6.03372 38.2536C5.8973 38.2536 5.78568 38.3652 5.78568 38.5016C5.78568 38.6381 5.70251 38.7497 5.60081 38.7497C5.36038 38.7497 4.13208 39.978 4.13208 40.2184C4.13208 40.3201 4.02046 40.4033 3.88404 40.4033C3.74762 40.4033 3.636 40.5149 3.636 40.6513C3.636 40.7877 3.52438 40.8994 3.38796 40.8994C3.25154 40.8994 3.13992 41.011 3.13992 41.1474C3.13992 41.2838 3.0283 41.3954 2.89188 41.3954C2.75546 41.3954 2.64384 41.5071 2.64384 41.6435C2.64384 41.7799 2.53222 41.8915 2.3958 41.8915C2.25937 41.8915 2.14643 41.9846 2.14495 42.0982C2.14147 42.3502 1.42761 43.049 1.17362 43.049C1.06382 43.049 0.990234 43.3808 0.990234 43.8758C0.990234 44.4675 1.05489 44.7026 1.21777 44.7026C1.3747 44.7026 1.46912 44.9897 1.52203 45.6273C1.5642 46.136 1.6735 46.601 1.76495 46.6608C1.85639 46.7207 1.97826 47.0666 2.03564 47.4298C2.09302 47.7929 2.21423 48.1147 2.30518 48.1449C2.39596 48.1752 2.51899 48.5666 2.57835 49.0144C2.6779 49.7647 2.72205 49.8288 3.13744 49.8288H3.58854L3.67817 48.0714C3.72761 47.1047 3.83873 46.2675 3.92522 46.2111C4.0117 46.1545 4.12646 45.3145 4.17987 44.3441C4.27842 42.5619 4.52398 41.8915 5.07827 41.8915C5.19452 41.8915 5.2896 41.7799 5.2896 41.6435C5.2896 41.4781 5.45496 41.3954 5.78568 41.3954C6.1164 41.3954 6.28176 41.3128 6.28176 41.1474C6.28176 41.0097 6.42877 40.8994 6.61249 40.8994C6.7962 40.8994 6.94321 40.7891 6.94321 40.6513C6.94321 40.486 7.10857 40.4033 7.43929 40.4033C7.75149 40.4033 7.93537 40.3184 7.93537 40.1746C7.93537 40.0487 8.10288 39.9009 8.30743 39.846C8.87213 39.6947 8.92753 39.715 8.92753 40.0726C8.92753 40.2563 9.03783 40.4033 9.17557 40.4033C9.38277 40.4033 9.42361 40.7423 9.42361 42.462C9.42361 44.0553 9.47603 44.5507 9.65545 44.653C9.83205 44.7537 9.90101 45.3277 9.94483 47.0592C9.99741 49.1363 9.9774 49.3329 9.71299 49.3329C9.55392 49.3327 9.42361 49.4444 9.42361 49.5808C9.42361 49.7172 9.31199 49.8288 9.17557 49.8288C9.01021 49.8288 8.92753 49.9942 8.92753 50.3249C8.92753 50.6556 9.01021 50.821 9.17557 50.821C9.36292 50.821 9.42361 51.023 9.42361 51.6478C9.42361 52.2404 9.48827 52.4746 9.65181 52.4746C9.8127 52.4746 9.90134 52.7706 9.9526 53.4798C9.99262 54.0328 10.1074 54.5358 10.2074 54.5976C10.3076 54.6596 10.4394 54.9087 10.5003 55.1514C10.5611 55.394 10.7159 55.6328 10.8441 55.6819C10.9737 55.7317 11.0772 55.9939 11.0772 56.2727C11.0772 56.6081 11.1594 56.7739 11.3253 56.7739C11.4617 56.7739 11.5733 56.8856 11.5733 57.022C11.5733 57.2251 11.858 57.27 13.1442 57.27C14.4304 57.27 14.7151 57.2251 14.7151 57.022C14.7151 56.8856 14.6035 56.7739 14.4671 56.7739C14.3307 56.7739 14.2191 56.6683 14.2191 56.539C14.2191 56.4098 13.9958 56.255 13.723 56.1952C13.4501 56.1353 13.2269 55.9805 13.2269 55.8514C13.2269 55.7221 13.0781 55.6164 12.8962 55.6164C12.5855 55.6164 12.5655 55.5061 12.5655 53.7975C12.5655 52.336 12.6116 51.9785 12.8004 51.9785C12.9296 51.9785 13.0844 51.7553 13.1442 51.4824C13.2041 51.2096 13.3589 50.9863 13.488 50.9863C13.6173 50.9863 13.723 50.8694 13.723 50.7266C13.723 50.5835 13.8346 50.355 13.971 50.2186C14.1074 50.0821 14.2191 49.827 14.2191 49.6517C14.2191 49.4763 14.3307 49.3327 14.4671 49.3327C14.6325 49.3327 14.7151 49.1674 14.7151 48.8367C14.7151 48.5059 14.7978 48.3406 14.9632 48.3406C15.0996 48.3406 15.2112 48.2266 15.2112 48.0874C15.2112 47.948 15.3184 47.7931 15.4492 47.7428C15.58 47.6925 15.7348 47.4346 15.793 47.1692C16.0197 46.1373 16.3687 46.9519 16.3687 48.5129C16.3687 48.9486 16.4403 49.3299 16.5278 49.3603C16.6151 49.3906 16.7378 50.3232 16.8002 51.4326C16.8822 52.8934 16.9753 53.4737 17.1372 53.5359C17.2602 53.5832 17.3609 53.7356 17.3609 53.875C17.3609 54.046 17.5218 54.1282 17.857 54.1282C18.1877 54.1282 18.3531 54.2109 18.3531 54.3762C18.3531 54.5126 18.4647 54.6243 18.6011 54.6243C18.7375 54.6243 18.8491 54.7074 18.8491 54.8091C18.8491 55.0496 20.0774 56.2779 20.3179 56.2779C20.4196 56.2779 20.5028 56.5011 20.5028 56.7739V57.27H22.0737H23.6446V56.787C23.6446 56.3849 23.5616 56.286 23.1485 56.1952C22.8757 56.1353 22.6524 55.9805 22.6524 55.8514C22.6524 55.7221 22.5408 55.6164 22.4044 55.6164C22.268 55.6164 22.1564 55.5048 22.1564 55.3684C22.1564 55.2306 22.0094 55.1203 21.8256 55.1203C21.6437 55.1203 21.4949 55.015 21.4949 54.886C21.4949 54.7572 21.402 54.6208 21.2882 54.5829C21.1308 54.5305 21.0815 53.5997 21.0815 50.6771C21.0815 47.4451 21.1205 46.8161 21.3296 46.6866C21.5404 46.5562 21.5776 45.8428 21.5776 41.9271C21.5776 37.7611 21.6052 37.2935 21.867 37.0314C22.0262 36.8722 22.1564 36.6433 22.1564 36.5233C22.1564 36.403 22.268 36.2618 22.4044 36.2094C22.5408 36.1572 22.6524 36.0004 22.6524 35.861C22.6524 35.7218 22.7641 35.6078 22.9005 35.6078C23.0369 35.6078 23.1485 35.4962 23.1485 35.3598C23.1485 35.2234 23.2601 35.1117 23.3966 35.1117C23.5598 35.1117 23.6446 34.9485 23.6446 34.635C23.6446 34.2972 23.741 34.133 23.9753 34.0716C24.1572 34.0242 24.306 33.8666 24.306 33.7217C24.306 33.5767 24.3805 33.4581 24.4714 33.4581C24.5623 33.4581 24.6368 33.3465 24.6368 33.2101C24.6368 33.0737 24.7424 32.9621 24.8717 32.9621C25.0009 32.9621 25.1557 32.7388 25.2155 32.466C25.2754 32.1931 25.4302 31.9699 25.5593 31.9699C25.6886 31.9699 25.7943 31.8211 25.7943 31.6392C25.7943 31.4555 25.9046 31.3085 26.0423 31.3085C26.1787 31.3085 26.2904 31.1968 26.2904 31.0604C26.2904 30.924 26.3939 30.8124 26.5205 30.8124C26.647 30.8124 26.7998 30.6161 26.86 30.3763C26.9202 30.1364 27.1888 29.7478 27.4566 29.5126C27.7247 29.2775 27.944 29.0281 27.944 28.9585C27.944 28.6045 28.5584 28.1666 29.0555 28.1666C29.4271 28.1666 29.5976 28.0886 29.5976 27.9186C29.5976 27.7519 29.7643 27.6705 30.1061 27.6705H30.6145L30.5608 29.2828L30.5071 30.8951L31.2925 30.8388L32.078 30.7826V31.6243C32.078 32.2623 32.018 32.466 31.8299 32.466C31.6646 32.466 31.5819 32.6313 31.5819 32.9621C31.5819 33.2751 31.4972 33.4581 31.3522 33.4581C31.2207 33.4581 31.0762 33.7054 31.014 34.0369C30.9544 34.3552 30.8345 34.6157 30.7477 34.6157C30.6608 34.6157 30.5897 34.7273 30.5897 34.8637C30.5897 35.0001 30.6641 35.1117 30.7551 35.1117C30.846 35.1117 30.9205 35.2234 30.9205 35.3598C30.9205 35.4975 31.0675 35.6078 31.2512 35.6078C31.4349 35.6078 31.5819 35.4975 31.5819 35.3598C31.5819 35.1764 31.774 35.1117 32.3186 35.1117C33.0295 35.1117 33.0589 35.0916 33.1637 34.533C33.2259 34.2014 33.3704 33.9542 33.5019 33.9542C33.6727 33.9542 33.7316 33.6966 33.7316 32.9503C33.7316 32.2783 33.8136 31.8642 33.9796 31.6982C34.1486 31.5292 34.2277 31.1117 34.2277 30.3872C34.2277 29.5525 34.2809 29.3241 34.4757 29.3241C34.6707 29.3241 34.7237 29.0944 34.7237 28.2493C34.7237 27.4041 34.7768 27.1744 34.9718 27.1744C35.1451 27.1744 35.2198 26.9998 35.2198 26.5957C35.2198 26.1915 35.1451 26.0169 34.9718 26.0169C34.8354 26.0169 34.7237 25.9053 34.7237 25.7689C34.7237 25.6035 34.5584 25.5208 34.2277 25.5208C33.8969 25.5208 33.7316 25.4382 33.7316 25.2728C33.7316 25.0995 33.557 25.0248 33.1528 25.0248H32.5741V23.7019C32.5741 22.9301 32.5051 22.379 32.4087 22.379C32.3177 22.379 32.2433 22.2674 32.2433 22.131C32.2433 21.9932 32.0963 21.8829 31.9126 21.8829C31.7289 21.8829 31.5819 21.7726 31.5819 21.6349C31.5819 21.4985 31.4703 21.3868 31.3339 21.3868C31.1974 21.3868 31.0858 21.2683 31.0858 21.1233C31.0858 20.9784 30.937 20.8208 30.7551 20.7734C30.5732 20.7257 30.4244 20.5838 30.4244 20.458C30.4244 20.3323 30.3128 20.2293 30.1763 20.2293C30.0399 20.2293 29.9283 20.1177 29.9283 19.9813C29.9283 19.8159 29.7629 19.7332 29.4322 19.7332C29.1015 19.7332 28.9361 19.6506 28.9361 19.4852C28.9361 19.3488 28.8245 19.2372 28.6881 19.2372C28.5503 19.2372 28.4401 19.0901 28.4401 18.9064C28.4401 18.7227 28.3298 18.5757 28.192 18.5757C28.0556 18.5757 27.944 18.4641 27.944 18.3277C27.944 18.1912 27.8323 18.0796 27.6959 18.0796C27.5595 18.0796 27.4479 17.968 27.4479 17.8316C27.4479 17.6938 27.3009 17.5836 27.1172 17.5836C26.9335 17.5836 26.7864 17.4733 26.7864 17.3355C26.7864 17.1991 26.6748 17.0875 26.5384 17.0875C26.402 17.0875 26.2904 16.9759 26.2904 16.8394C26.2904 16.703 26.1787 16.5914 26.0423 16.5914C25.855 16.5914 25.7943 16.3893 25.7943 15.7646C25.7943 15.1399 25.7336 14.9378 25.5462 14.9378C25.3625 14.9378 25.2982 14.7448 25.2982 14.1937V13.4495H26.0423C26.5935 13.4495 26.7864 13.5139 26.7864 13.6976C26.7864 13.8849 26.9885 13.9456 27.6132 13.9456C28.238 13.9456 28.4401 14.0063 28.4401 14.1937C28.4401 14.3767 28.6315 14.4417 29.1711 14.4417C29.8488 14.4417 29.9099 14.4057 30.011 13.9456C30.0708 13.6728 30.1851 13.4495 30.2646 13.4495C30.3443 13.4495 30.4583 13.1891 30.518 12.8708C30.5801 12.5392 30.7247 12.292 30.8561 12.292C30.9825 12.292 31.0858 12.1804 31.0858 12.044C31.0858 11.9076 30.9742 11.7959 30.8378 11.7959C30.7014 11.7959 30.5897 11.7128 30.5897 11.6111C30.5897 11.3706 29.3614 10.1423 29.121 10.1423C29.0193 10.1423 28.9361 10.0307 28.9361 9.8943C28.9361 9.75787 28.8245 9.64625 28.6881 9.64625C28.5517 9.64625 28.4401 9.53464 28.4401 9.39821C28.4401 9.26179 28.3284 9.15017 28.192 9.15017C28.0556 9.15017 27.944 9.03856 27.944 8.90213C27.944 8.76571 27.8406 8.65409 27.7143 8.65409C27.5838 8.65409 27.4388 8.40969 27.3784 8.0874C27.3199 7.7757 27.1813 7.49045 27.0705 7.45341C26.8028 7.36428 26.8015 5.70737 27.0692 5.54185C27.1883 5.46826 27.3146 4.78582 27.3816 3.85302C27.4434 2.99216 27.5582 2.26292 27.6364 2.23266C27.7146 2.20223 27.7786 1.84885 27.7786 1.44719C27.7786 0.7459 27.7589 0.716797 27.2825 0.716797C26.8967 0.716797 26.7864 0.790217 26.7864 1.04752ZM26.2904 5.26421C26.2904 5.81535 26.226 6.00833 26.0423 6.00833C25.8586 6.00833 25.7943 5.81535 25.7943 5.26421C25.7943 4.71306 25.8586 4.52008 26.0423 4.52008C26.226 4.52008 26.2904 4.71306 26.2904 5.26421ZM24.6368 6.51615C24.6368 6.79561 24.5251 7.13575 24.3887 7.27218C24.2075 7.45341 24.1407 7.89558 24.1407 8.91387C24.1407 10.0426 24.0936 10.3077 23.8926 10.3077C23.7562 10.3077 23.6446 10.1961 23.6446 10.0597C23.6446 9.92323 23.533 9.81161 23.3966 9.81161C23.2233 9.81161 23.1485 9.63699 23.1485 9.23285C23.1485 8.82871 23.0738 8.65409 22.9005 8.65409C22.7641 8.65409 22.6524 8.51056 22.6524 8.33511C22.6524 8.15983 22.5408 7.90468 22.4044 7.76826C22.0907 7.45457 22.0826 7.00049 22.3907 7.00049C22.5195 7.00049 22.6513 6.92128 22.6835 6.82438C22.7158 6.72764 23.0569 6.60627 23.4415 6.55468C23.8771 6.49614 24.1407 6.37559 24.1407 6.23454C24.1407 6.11019 24.2523 6.00833 24.3887 6.00833C24.5554 6.00833 24.6368 6.17501 24.6368 6.51615ZM25.7364 7.16585C25.791 7.43869 25.938 7.66193 26.063 7.66193C26.2054 7.66193 26.2904 7.8473 26.2904 8.15801C26.2904 8.48873 26.373 8.65409 26.5384 8.65409C26.6748 8.65409 26.7864 8.76571 26.7864 8.90213C26.7864 9.03856 26.6748 9.15017 26.5384 9.15017C26.402 9.15017 26.2904 9.26179 26.2904 9.39821C26.2904 9.53464 26.1787 9.64625 26.0423 9.64625C25.9059 9.64625 25.7943 9.75787 25.7943 9.8943C25.7943 10.0307 25.6803 10.1423 25.5411 10.1423C25.4017 10.1423 25.245 10.254 25.1927 10.3904C25.0331 10.8061 24.8021 10.6674 24.8021 10.1561C24.8021 9.89082 24.8949 9.64295 25.0083 9.60508C25.1454 9.55944 25.2342 9.05608 25.2732 8.10311C25.3321 6.67026 25.5494 6.23057 25.7364 7.16585ZM21.991 9.11346C21.991 9.36812 22.1383 9.69884 22.3217 9.85593C22.5036 10.0117 22.6524 10.2887 22.6524 10.4714C22.6524 10.6566 22.7622 10.8038 22.9005 10.8038C23.0658 10.8038 23.1485 10.9691 23.1485 11.2999C23.1485 11.6306 23.2312 11.7959 23.3966 11.7959C23.5619 11.7959 23.6446 11.9613 23.6446 12.292C23.6446 12.6227 23.5619 12.7881 23.3966 12.7881C23.2588 12.7881 23.1485 12.9351 23.1485 13.1188C23.1485 13.3007 23.0429 13.4495 22.9135 13.4495C22.7844 13.4495 22.6296 13.6728 22.5698 13.9456C22.5099 14.2185 22.3983 14.4417 22.3217 14.4417C22.2452 14.4417 22.135 14.6587 22.0767 14.9239C22.0184 15.1893 21.8637 15.4473 21.7329 15.4975C21.6021 15.5478 21.4949 15.7027 21.4949 15.8421C21.4949 15.9814 21.4265 16.0953 21.3426 16.0953C21.2589 16.0953 21.1414 16.3185 21.0815 16.5914C21.0217 16.8642 20.8669 17.0875 20.7377 17.0875C20.5869 17.0875 20.5028 17.2652 20.5028 17.5836C20.5028 17.9143 20.4201 18.0796 20.2547 18.0796C20.0894 18.0796 20.0067 17.9143 20.0067 17.5836C20.0067 17.2528 20.0894 17.0875 20.2547 17.0875C20.4578 17.0875 20.5028 16.8027 20.5028 15.5165C20.5028 14.2755 20.5517 13.9456 20.7357 13.9456C20.9181 13.9456 20.981 13.562 21.0251 12.1816C21.0642 10.9594 21.145 10.3965 21.2882 10.3489C21.402 10.311 21.4959 10.0816 21.4972 9.83923C21.5002 9.23104 21.6695 8.65409 21.845 8.65409C21.9252 8.65409 21.991 8.86079 21.991 9.11346ZM27.2825 10.3077C27.2825 10.6173 27.3677 10.8038 27.5087 10.8038C27.6493 10.8038 27.7702 11.0652 27.8276 11.4933C27.8785 11.8725 28.0371 12.2482 28.1801 12.3282C28.4768 12.4944 28.5077 12.76 28.2722 13.1188C28.1369 13.3247 28.0847 13.3287 27.9645 13.1421C27.8848 13.0186 27.4755 12.8787 27.055 12.8313C26.5597 12.7755 26.2904 12.6652 26.2904 12.5186C26.2904 12.3686 26.0886 12.292 25.6939 12.292C25.218 12.292 25.1178 12.2391 25.1978 12.0304C25.2531 11.8866 25.2982 11.6633 25.2982 11.5343C25.2982 11.4054 25.4098 11.2999 25.5462 11.2999C25.6827 11.2999 25.7943 11.1882 25.7943 11.0518C25.7943 10.9154 25.8909 10.8038 26.0088 10.8038C26.1267 10.8038 26.4058 10.5837 26.6289 10.3146C27.1453 9.69189 27.2825 9.69057 27.2825 10.3077ZM29.4322 11.5479C29.4322 11.6843 29.5438 11.7959 29.6803 11.7959C29.8167 11.7959 29.9283 11.9076 29.9283 12.044C29.9283 12.2093 29.7629 12.292 29.4322 12.292C28.9912 12.292 28.9361 12.237 28.9361 11.7959C28.9361 11.4652 29.0188 11.2999 29.1842 11.2999C29.3206 11.2999 29.4322 11.4115 29.4322 11.5479ZM19.9417 13.2151C19.8865 13.3589 19.8413 13.5822 19.8413 13.7111C19.8413 13.8401 19.7669 13.9456 19.676 13.9456C19.585 13.9456 19.5106 13.7224 19.5106 13.4495C19.5106 13.1041 19.5913 12.9535 19.7763 12.9535C19.9508 12.9535 20.0075 13.0434 19.9417 13.2151ZM25.1328 13.1188C25.1328 13.2098 25.0584 13.2842 24.9675 13.2842C24.8765 13.2842 24.8021 13.2098 24.8021 13.1188C24.8021 13.0279 24.8765 12.9535 24.9675 12.9535C25.0584 12.9535 25.1328 13.0279 25.1328 13.1188ZM24.191 14.1487C24.2425 14.5333 24.3639 14.8745 24.4607 14.9067C24.5576 14.9389 24.6368 15.1847 24.6368 15.4529C24.6368 15.7337 24.7419 15.9807 24.8848 16.0354C25.0262 16.0897 25.1328 16.3364 25.1328 16.6091C25.1328 17.0304 25.0736 17.0875 24.6368 17.0875C24.3184 17.0875 24.1407 17.1716 24.1407 17.3224C24.1407 17.4516 23.9174 17.6064 23.6446 17.6662C23.3718 17.7261 23.1485 17.8437 23.1485 17.9273C23.1485 18.0112 23.0534 18.0796 22.9372 18.0796C22.8209 18.0796 22.5985 18.2285 22.4428 18.4104C22.287 18.5922 22.0552 18.7411 21.9277 18.7411C21.8 18.7411 21.6528 18.8527 21.6004 18.9891C21.5482 19.1255 21.3914 19.2372 21.252 19.2372C21.1128 19.2372 20.9988 19.3488 20.9988 19.4852C20.9988 19.6216 20.8872 19.7332 20.7508 19.7332C20.6144 19.7332 20.5028 19.6216 20.5028 19.4852C20.5028 19.3488 20.6144 19.2372 20.7508 19.2372C20.9167 19.2372 20.9988 19.0713 20.9988 18.7359C20.9988 18.4524 21.1022 18.1949 21.2368 18.1433C21.3676 18.093 21.5224 17.8351 21.5806 17.5697C21.6389 17.3044 21.7922 17.0875 21.9214 17.0875C22.0722 17.0875 22.1564 16.9097 22.1564 16.5914C22.1564 16.2607 22.239 16.0953 22.4044 16.0953C22.5421 16.0953 22.6524 15.9483 22.6524 15.7646C22.6524 15.5809 22.7627 15.4339 22.9005 15.4339C23.0658 15.4339 23.1485 15.2685 23.1485 14.9378C23.1485 14.6271 23.2335 14.4417 23.3759 14.4417C23.5009 14.4417 23.6479 14.2185 23.7025 13.9456C23.8445 13.2352 24.0816 13.3338 24.191 14.1487ZM19.4516 15.7138C19.3924 16.4135 19.2702 17.0317 19.1799 17.0875C19.0896 17.1432 18.9674 17.7615 18.9082 18.4611C18.8088 19.6358 18.7723 19.7332 18.4308 19.7332C18.0093 19.7332 17.8628 19.3651 17.8593 18.2981C17.858 17.9017 17.9627 17.5014 18.105 17.3592C18.2415 17.2227 18.3531 16.8862 18.3531 16.6114C18.3531 16.329 18.4662 16.0485 18.613 15.9662C18.7561 15.8861 18.9146 15.5104 18.9656 15.1313C19.0279 14.6663 19.1397 14.4417 19.3085 14.4417C19.52 14.4417 19.5423 14.6403 19.4516 15.7138ZM51.2007 17.3355C51.0526 17.4837 50.6483 17.5836 50.1967 17.5836C49.6538 17.5836 49.4408 17.6497 49.4408 17.8185C49.4408 17.9477 49.2176 18.1025 48.9447 18.1623C48.6719 18.2222 48.4487 18.3769 48.4487 18.5061C48.4487 18.6354 48.337 18.7411 48.2006 18.7411C48.0642 18.7411 47.9526 18.8527 47.9526 18.9891C47.9526 19.1255 47.8469 19.2372 47.7176 19.2372C47.5884 19.2372 47.4337 19.4604 47.3738 19.7332C47.3139 20.0061 47.1592 20.2293 47.03 20.2293C46.8718 20.2293 46.795 20.4183 46.795 20.8081C46.795 21.2122 46.7203 21.3868 46.547 21.3868C46.3315 21.3868 46.299 22.1126 46.299 26.9264C46.299 31.7402 46.3315 32.466 46.547 32.466C46.7124 32.466 46.795 32.6313 46.795 32.9621C46.795 33.2928 46.8777 33.4581 47.0431 33.4581C47.1808 33.4581 47.2911 33.6051 47.2911 33.7889C47.2911 33.9726 47.4014 34.1196 47.5392 34.1196C47.6756 34.1196 47.7872 34.2312 47.7872 34.3676C47.7872 34.504 47.8988 34.6157 48.0352 34.6157C48.1717 34.6157 48.2833 34.7273 48.2833 34.8637C48.2833 35.0014 48.4303 35.1117 48.614 35.1117C48.7977 35.1117 48.9447 35.222 48.9447 35.3598C48.9447 35.567 49.2847 35.6078 51.0117 35.6078C52.7388 35.6078 53.0787 35.567 53.0787 35.3598C53.0787 35.222 53.2257 35.1117 53.4095 35.1117C53.5932 35.1117 53.7402 35.0014 53.7402 34.8637C53.7402 34.7273 53.8518 34.6157 53.9882 34.6157C54.1246 34.6157 54.2363 34.504 54.2363 34.3676C54.2363 34.2312 54.3479 34.1196 54.4843 34.1196C54.6953 34.1196 54.7323 34.5513 54.7323 37.0134C54.7323 39.4159 54.6922 39.9072 54.4952 39.9072C54.3596 39.9072 54.2359 40.1017 54.2058 40.3619C54.1623 40.7408 54.064 40.8253 53.6162 40.8684C53.2833 40.9005 53.0787 41.0106 53.0787 41.1578C53.0787 41.3116 52.9036 41.3954 52.5827 41.3954C52.2519 41.3954 52.0866 41.3128 52.0866 41.1474C52.0866 40.982 51.9212 40.8994 51.5905 40.8994C51.1483 40.8994 51.0944 40.8448 51.0944 40.3981C51.0944 40.1051 50.9914 39.8573 50.8464 39.8017C50.6646 39.7319 50.5983 39.4457 50.5983 38.732V37.7575H48.4487H46.299V39.3284C46.299 40.6146 46.3439 40.8994 46.547 40.8994C46.7311 40.8994 46.795 41.0928 46.795 41.6486C46.795 42.148 46.8744 42.4284 47.033 42.4893C47.1638 42.5396 47.3186 42.7975 47.3768 43.0629C47.4352 43.3282 47.5884 43.5451 47.7176 43.5451C47.8469 43.5451 47.9526 43.6567 47.9526 43.7932C47.9526 43.9296 48.0642 44.0412 48.2006 44.0412C48.337 44.0412 48.4487 44.1447 48.4487 44.2714C48.4487 44.3979 48.6525 44.5527 48.9017 44.6152C49.1509 44.6777 49.4006 44.803 49.4567 44.8936C49.5127 44.9843 49.8855 45.1012 50.2851 45.1534C50.6848 45.2055 51.0648 45.3302 51.1298 45.4302C51.2887 45.6755 54.5374 45.6761 54.697 45.4311C54.7619 45.3313 55.1084 45.2035 55.467 45.1468C55.8255 45.0903 56.1827 44.9299 56.2606 44.7906C56.3387 44.6512 56.5103 44.5373 56.6423 44.5373C56.774 44.5373 56.882 44.4257 56.882 44.2892C56.882 44.1528 56.9936 44.0412 57.1301 44.0412C57.2665 44.0412 57.3781 43.9296 57.3781 43.7932C57.3781 43.6567 57.4897 43.5451 57.6261 43.5451C57.7626 43.5451 57.8742 43.4335 57.8742 43.2971C57.8742 43.1607 57.9799 43.049 58.1092 43.049C58.24 43.049 58.3956 42.8111 58.4606 42.5116C58.5247 42.2161 58.6479 41.9291 58.7342 41.874C58.8207 41.8189 58.9342 41.4469 58.9864 41.0472C59.0385 40.6475 59.1632 40.2675 59.2632 40.2025C59.5204 40.0358 59.5204 22.5811 59.2632 22.4144C59.1632 22.3494 59.0385 21.9694 58.9864 21.5697C58.9342 21.1701 58.8172 20.7973 58.7266 20.7413C58.636 20.6852 58.5107 20.4355 58.4482 20.1863C58.3857 19.9371 58.2309 19.7332 58.1044 19.7332C57.9777 19.7332 57.8742 19.6216 57.8742 19.4852C57.8742 19.3488 57.7626 19.2372 57.6261 19.2372C57.4884 19.2372 57.3781 19.0901 57.3781 18.9064C57.3781 18.7245 57.2744 18.5757 57.1478 18.5757C57.0211 18.5757 56.8746 18.4641 56.8222 18.3277C56.7699 18.1912 56.5387 18.0796 56.3084 18.0796C56.0466 18.0796 55.8899 17.9867 55.8899 17.8316C55.8899 17.6442 55.6878 17.5836 55.0631 17.5836C54.4383 17.5836 54.2363 17.5229 54.2363 17.3355C54.2363 17.1346 53.9712 17.0875 52.8424 17.0875C51.8242 17.0875 51.382 17.1543 51.2007 17.3355ZM100.041 17.4182C100.041 17.5091 99.7859 17.5836 99.4741 17.5836C99.1623 17.5836 98.7956 17.6952 98.6592 17.8316C98.5227 17.968 98.2942 18.0796 98.1512 18.0796C98.0083 18.0796 97.8914 18.1912 97.8914 18.3277C97.8914 18.4641 97.7798 18.5757 97.6433 18.5757C97.5069 18.5757 97.3953 18.6873 97.3953 18.8238C97.3953 18.9602 97.2837 19.0718 97.1473 19.0718C97.0095 19.0718 96.8992 19.2188 96.8992 19.4025C96.8992 19.5844 96.7957 19.7332 96.669 19.7332C96.5425 19.7332 96.3878 19.9371 96.3253 20.1863C96.2628 20.4355 96.1296 20.69 96.0294 20.752C95.9294 20.8139 95.8146 21.3169 95.7746 21.8699C95.7348 22.4227 95.6365 22.8751 95.5565 22.8751C95.4746 22.8751 95.411 26.5644 95.411 31.3085C95.411 36.8204 95.4682 39.7418 95.5763 39.7418C95.6673 39.7418 95.7417 40.1458 95.7417 40.6396C95.7417 41.1816 95.832 41.6274 95.9696 41.765C96.0949 41.8904 96.2497 42.2305 96.3135 42.521C96.3775 42.8126 96.5346 43.049 96.6642 43.049C96.7936 43.049 96.8992 43.1607 96.8992 43.2971C96.8992 43.4335 97.0108 43.5451 97.1473 43.5451C97.2837 43.5451 97.3953 43.6567 97.3953 43.7932C97.3953 43.9296 97.5069 44.0412 97.6433 44.0412C97.7798 44.0412 97.8914 44.1528 97.8914 44.2892C97.8914 44.4257 98.003 44.5373 98.1394 44.5373C98.2758 44.5373 98.3875 44.6464 98.3875 44.7797C98.3875 44.9456 98.6481 45.0565 99.2143 45.1316C99.669 45.1919 100.041 45.3062 100.041 45.3854C100.041 45.4646 100.599 45.5294 101.281 45.5294C101.963 45.5294 102.521 45.4648 102.521 45.3856C102.521 45.3065 102.873 45.2022 103.301 45.1537C103.731 45.1055 104.108 44.9866 104.14 44.8895C104.173 44.7924 104.454 44.6653 104.766 44.6067C105.088 44.5464 105.333 44.4014 105.333 44.2709C105.333 44.1446 105.444 44.0412 105.581 44.0412C105.746 44.0412 105.829 43.8758 105.829 43.5451C105.829 43.2144 105.911 43.049 106.077 43.049C106.213 43.049 106.325 42.9411 106.325 42.8093C106.325 42.6773 106.425 42.51 106.548 42.4372C106.67 42.3645 106.817 42.0132 106.873 41.6569C106.929 41.3004 107.059 40.9562 107.163 40.8919C107.287 40.8154 107.383 39.7995 107.442 37.9435L107.531 35.1117H106.432H105.333V37.68C105.333 39.8105 105.29 40.2645 105.085 40.3434C104.948 40.3958 104.836 40.5981 104.834 40.793C104.83 41.408 104.641 41.8915 104.404 41.8915C104.278 41.8915 104.175 42.0031 104.175 42.1396C104.175 42.276 104.063 42.3876 103.927 42.3876C103.791 42.3876 103.679 42.4906 103.679 42.6163C103.679 42.8559 103.194 43.0429 102.563 43.0467C102.33 43.0482 102.191 43.1499 102.191 43.3186C102.191 43.5421 102.057 43.5731 101.411 43.5001C100.982 43.4519 100.603 43.3305 100.57 43.2306C100.537 43.1307 100.309 43.049 100.064 43.049C99.819 43.049 99.4911 42.9002 99.3353 42.7183C99.1795 42.5364 98.9479 42.3876 98.8204 42.3876C98.6929 42.3876 98.5375 42.1837 98.4749 41.9345C98.4124 41.6853 98.2742 41.4277 98.1677 41.3619C98.0242 41.2732 97.9623 38.7202 97.9289 31.4955C97.8899 23.0877 97.9172 21.7154 98.1275 21.5051C98.2615 21.3711 98.4201 21.0664 98.4799 20.8281C98.5398 20.5896 98.6929 20.3947 98.8204 20.3947C98.9479 20.3947 99.1795 20.2459 99.3353 20.064C99.4924 19.8806 99.8231 19.7332 100.078 19.7332C100.376 19.7332 100.537 19.6461 100.537 19.4852C100.537 19.2978 100.739 19.2372 101.364 19.2372C101.989 19.2372 102.191 19.2978 102.191 19.4852C102.191 19.6689 102.384 19.7332 102.935 19.7332C103.486 19.7332 103.679 19.7976 103.679 19.9813C103.679 20.1177 103.791 20.2293 103.927 20.2293C104.063 20.2293 104.175 20.3373 104.175 20.4691C104.175 20.601 104.292 20.7745 104.435 20.8545C104.578 20.9346 104.737 21.3103 104.788 21.6894C104.845 22.1176 104.966 22.379 105.106 22.379C105.286 22.379 105.333 22.82 105.333 24.5287C105.333 26.3293 105.373 26.6784 105.581 26.6784C105.717 26.6784 105.829 26.7528 105.829 26.8437C105.829 26.9347 106.052 27.0091 106.325 27.0091C106.598 27.0091 106.821 26.9347 106.821 26.8437C106.821 26.7528 106.981 26.6784 107.177 26.6784C107.53 26.6784 107.532 26.6552 107.433 24.3245C107.374 22.9619 107.261 21.9469 107.163 21.9143C107.07 21.8834 106.946 21.4915 106.886 21.0437C106.816 20.5165 106.698 20.2293 106.551 20.2293C106.427 20.2293 106.325 20.1177 106.325 19.9813C106.325 19.8449 106.213 19.7332 106.077 19.7332C105.911 19.7332 105.829 19.5679 105.829 19.2372C105.829 18.9448 105.742 18.7411 105.617 18.7411C105.501 18.7411 105.279 18.5922 105.123 18.4104C104.967 18.2285 104.69 18.0796 104.507 18.0796C104.322 18.0796 104.175 17.9698 104.175 17.8316C104.175 17.6442 103.973 17.5836 103.348 17.5836C102.894 17.5836 102.521 17.5091 102.521 17.4182C102.521 17.3226 101.998 17.2528 101.281 17.2528C100.565 17.2528 100.041 17.3226 100.041 17.4182ZM114.758 17.4182C114.758 17.5091 114.391 17.5836 113.943 17.5836C113.439 17.5836 113.033 17.6781 112.88 17.8316C112.744 17.968 112.515 18.0796 112.372 18.0796C112.229 18.0796 112.112 18.1912 112.112 18.3277C112.112 18.4641 112.001 18.5757 111.864 18.5757C111.727 18.5757 111.616 18.7227 111.616 18.9064C111.616 19.0901 111.506 19.2372 111.368 19.2372C111.232 19.2372 111.12 19.3488 111.12 19.4852C111.12 19.6216 111.017 19.7332 110.89 19.7332C110.764 19.7332 110.609 19.9371 110.546 20.1863C110.484 20.4355 110.352 20.6892 110.254 20.7499C110.156 20.8106 110.04 21.2951 109.997 21.8264C109.954 22.3577 109.835 22.8455 109.734 22.9103C109.452 23.0904 109.474 39.6062 109.756 39.7005C109.887 39.7442 109.963 40.0932 109.963 40.6533C109.963 41.1838 110.054 41.6283 110.191 41.765C110.316 41.8904 110.471 42.2305 110.535 42.521C110.599 42.8126 110.756 43.049 110.885 43.049C111.015 43.049 111.12 43.1607 111.12 43.2971C111.12 43.4335 111.232 43.5451 111.368 43.5451C111.505 43.5451 111.616 43.6567 111.616 43.7932C111.616 43.9296 111.728 44.0412 111.864 44.0412C112.001 44.0412 112.112 44.1528 112.112 44.2892C112.112 44.4257 112.22 44.5373 112.352 44.5373C112.484 44.5373 112.658 44.6544 112.738 44.7972C112.818 44.9403 113.193 45.0989 113.573 45.1498C113.952 45.2007 114.262 45.3069 114.262 45.3859C114.262 45.4648 114.857 45.5294 115.585 45.5294C116.357 45.5294 116.908 45.4605 116.908 45.3641C116.908 45.2731 117.245 45.1987 117.657 45.1987C118.156 45.1987 118.437 45.1194 118.498 44.9608C118.548 44.83 118.806 44.6752 119.071 44.617C119.337 44.5586 119.554 44.4053 119.554 44.2762C119.554 44.1469 119.665 44.0412 119.802 44.0412C119.938 44.0412 120.05 43.9296 120.05 43.7932C120.05 43.6567 120.161 43.5451 120.298 43.5451C120.434 43.5451 120.546 43.4016 120.546 43.2261C120.546 43.0509 120.654 42.7993 120.786 42.6674C120.917 42.5354 121.078 42.214 121.142 41.9529C121.206 41.6918 121.34 41.425 121.439 41.3601C121.707 41.1861 121.695 21.4204 121.427 21.255C121.32 21.1894 121.182 20.9316 121.12 20.6824C121.057 20.4332 120.946 20.2293 120.872 20.2293C120.798 20.2293 120.688 20.0061 120.628 19.7332C120.569 19.4604 120.414 19.2372 120.285 19.2372C120.155 19.2372 120.05 19.1255 120.05 18.9891C120.05 18.8527 119.938 18.7411 119.802 18.7411C119.665 18.7411 119.554 18.6354 119.554 18.5061C119.554 18.3769 119.337 18.2237 119.071 18.1653C118.806 18.1071 118.548 17.9523 118.498 17.8215C118.435 17.6581 118.146 17.5836 117.574 17.5836C117.117 17.5836 116.742 17.5091 116.742 17.4182C116.742 17.3263 116.301 17.2528 115.75 17.2528C115.199 17.2528 114.758 17.3263 114.758 17.4182ZM158.579 17.4182C158.579 17.5091 158.207 17.5836 157.752 17.5836C157.127 17.5836 156.925 17.6442 156.925 17.8316C156.925 17.9698 156.778 18.0796 156.593 18.0796C156.41 18.0796 156.133 18.2285 155.977 18.4104C155.821 18.5922 155.599 18.7411 155.483 18.7411C155.367 18.7411 155.271 18.8527 155.271 18.9891C155.271 19.1255 155.16 19.2372 155.023 19.2372C154.858 19.2372 154.775 19.4025 154.775 19.7332C154.775 20.064 154.693 20.2293 154.527 20.2293C154.354 20.2293 154.279 20.4039 154.279 20.8081C154.279 21.2122 154.205 21.3868 154.031 21.3868C153.821 21.3868 153.783 21.791 153.783 24.0326C153.783 26.2742 153.821 26.6784 154.031 26.6784C154.197 26.6784 154.279 26.8437 154.279 27.1744C154.279 27.5052 154.362 27.6705 154.527 27.6705C154.693 27.6705 154.775 27.8359 154.775 28.1666C154.775 28.4973 154.858 28.6627 155.023 28.6627C155.161 28.6627 155.271 28.8097 155.271 28.9934C155.271 29.1771 155.382 29.3241 155.519 29.3241C155.656 29.3241 155.768 29.4358 155.768 29.5722C155.768 29.7086 155.879 29.8202 156.016 29.8202C156.152 29.8202 156.264 29.9318 156.264 30.0683C156.264 30.206 156.411 30.3163 156.594 30.3163C156.778 30.3163 156.925 30.4266 156.925 30.5643C156.925 30.7008 157.037 30.8124 157.173 30.8124C157.309 30.8124 157.421 30.924 157.421 31.0604C157.421 31.1968 157.533 31.3085 157.669 31.3085C157.806 31.3085 157.917 31.4141 157.917 31.5434C157.917 31.6726 158.14 31.8274 158.413 31.8872C158.686 31.9471 158.909 32.1019 158.909 32.231C158.909 32.3603 159.058 32.466 159.24 32.466C159.424 32.466 159.571 32.5763 159.571 32.714C159.571 32.8504 159.682 32.9621 159.819 32.9621C159.955 32.9621 160.067 33.0737 160.067 33.2101C160.067 33.3465 160.162 33.4581 160.278 33.4581C160.394 33.4581 160.617 33.607 160.773 33.7889C160.928 33.9708 161.168 34.1196 161.305 34.1196C161.443 34.1196 161.555 34.2319 161.555 34.3693C161.555 34.5065 161.704 34.7463 161.886 34.9021C162.068 35.0578 162.217 35.2802 162.217 35.3965C162.217 35.5127 162.328 35.6078 162.465 35.6078C162.63 35.6078 162.713 35.7732 162.713 36.1039C162.713 36.4346 162.795 36.6 162.961 36.6C163.168 36.6 163.209 36.9491 163.209 38.7497C163.209 40.5503 163.168 40.8994 162.961 40.8994C162.795 40.8994 162.713 41.0647 162.713 41.3954C162.713 41.7262 162.63 41.8915 162.465 41.8915C162.328 41.8915 162.217 42.0031 162.217 42.1396C162.217 42.276 162.114 42.3876 161.988 42.3876C161.862 42.3876 161.72 42.5364 161.673 42.7183C161.602 42.9885 161.447 43.049 160.827 43.049C160.262 43.049 160.067 43.1125 160.067 43.2971C160.067 43.4694 159.894 43.5451 159.5 43.5451C159.188 43.5451 158.821 43.4335 158.685 43.2971C158.549 43.1607 158.208 43.049 157.929 43.049C157.588 43.049 157.421 42.9677 157.421 42.801C157.421 42.6646 157.309 42.553 157.173 42.553C157.037 42.553 156.925 42.4413 156.925 42.3049C156.925 42.1685 156.813 42.0569 156.677 42.0569C156.539 42.0569 156.429 41.9099 156.429 41.7262C156.429 41.5443 156.328 41.3954 156.205 41.3954C155.976 41.3954 155.768 39.8068 155.768 38.0633C155.768 37.6222 155.702 37.2614 155.621 37.2614C155.541 37.2614 155.436 37.1126 155.389 36.9307C155.318 36.6605 155.163 36.6 154.543 36.6H153.783V38.984C153.783 40.5225 153.846 41.3887 153.959 41.4265C154.056 41.4588 154.177 41.7999 154.229 42.1845C154.288 42.6201 154.408 42.8837 154.549 42.8837C154.673 42.8837 154.775 43.0325 154.775 43.2144C154.775 43.3981 154.886 43.5451 155.023 43.5451C155.16 43.5451 155.271 43.6567 155.271 43.7932C155.271 43.9296 155.383 44.0412 155.519 44.0412C155.656 44.0412 155.768 44.1528 155.768 44.2892C155.768 44.427 155.915 44.5373 156.098 44.5373C156.28 44.5373 156.429 44.6403 156.429 44.766C156.429 45.0433 156.934 45.1934 157.876 45.1964C158.262 45.1977 158.579 45.2731 158.579 45.3641C158.579 45.456 159.02 45.5294 159.571 45.5294C160.122 45.5294 160.563 45.456 160.563 45.3641C160.563 45.2731 160.9 45.1987 161.312 45.1987C161.812 45.1987 162.092 45.1194 162.153 44.9608C162.203 44.83 162.461 44.6752 162.727 44.617C162.992 44.5586 163.209 44.4053 163.209 44.2762C163.209 44.1469 163.32 44.0412 163.457 44.0412C163.593 44.0412 163.705 43.9296 163.705 43.7932C163.705 43.6567 163.816 43.5451 163.953 43.5451C164.089 43.5451 164.201 43.45 164.201 43.3338C164.201 43.2175 164.35 42.9951 164.532 42.8394C164.746 42.656 164.862 42.3516 164.862 41.9759C164.862 41.5702 164.937 41.3954 165.11 41.3954C165.321 41.3954 165.358 40.9913 165.358 38.7497C165.358 36.508 165.321 36.1039 165.11 36.1039C164.938 36.1039 164.862 35.9306 164.862 35.5369C164.862 35.2252 164.751 34.8584 164.614 34.722C164.478 34.5856 164.366 34.4093 164.366 34.3304C164.366 34.2514 164.146 34.0042 163.877 33.7811C163.608 33.558 163.385 33.2825 163.381 33.1688C163.377 33.0552 163.225 32.9621 163.043 32.9621C162.857 32.9621 162.713 32.8518 162.713 32.7089C162.713 32.5695 162.601 32.4127 162.465 32.3605C162.328 32.3081 162.217 32.1616 162.217 32.0349C162.217 31.9082 162.113 31.8045 161.986 31.8045C161.86 31.8045 161.713 31.6929 161.661 31.5565C161.608 31.4201 161.452 31.3085 161.312 31.3085C161.173 31.3085 161.059 31.1968 161.059 31.0604C161.059 30.8951 160.894 30.8124 160.563 30.8124C160.232 30.8124 160.067 30.7297 160.067 30.5643C160.067 30.4279 159.955 30.3163 159.819 30.3163C159.682 30.3163 159.571 30.2047 159.571 30.0683C159.571 29.9318 159.459 29.8202 159.323 29.8202C159.186 29.8202 159.075 29.7086 159.075 29.5722C159.075 29.4358 158.98 29.3241 158.863 29.3241C158.747 29.3241 158.525 29.1753 158.369 28.9934C158.213 28.8115 157.972 28.6627 157.832 28.6627C157.682 28.6627 157.538 28.4593 157.479 28.1666C157.424 27.8938 157.277 27.6705 157.152 27.6705C157.027 27.6705 156.925 27.5589 156.925 27.4225C156.925 27.2861 156.813 27.1744 156.677 27.1744C156.504 27.1744 156.429 26.9998 156.429 26.5957C156.429 26.1915 156.354 26.0169 156.181 26.0169C155.974 26.0169 155.933 25.6769 155.933 23.9499C155.933 22.2229 155.974 21.8829 156.181 21.8829C156.346 21.8829 156.429 21.7176 156.429 21.3868C156.429 21.0561 156.512 20.8908 156.677 20.8908C156.815 20.8908 156.925 20.7438 156.925 20.56C156.925 20.3763 157.035 20.2293 157.173 20.2293C157.309 20.2293 157.421 20.1177 157.421 19.9813C157.421 19.808 157.596 19.7332 158 19.7332C158.404 19.7332 158.579 19.6585 158.579 19.4852C158.579 19.2922 158.799 19.2372 159.571 19.2372C160.343 19.2372 160.563 19.2922 160.563 19.4852C160.563 19.6585 160.738 19.7332 161.142 19.7332C161.546 19.7332 161.72 19.808 161.72 19.9813C161.72 20.1177 161.832 20.2293 161.969 20.2293C162.105 20.2293 162.217 20.3409 162.217 20.4774C162.217 20.6138 162.328 20.7254 162.465 20.7254C162.638 20.7254 162.713 20.9 162.713 21.3042C162.713 21.7083 162.787 21.8829 162.961 21.8829C163.164 21.8829 163.209 22.1677 163.209 23.4538V25.0248H164.284H165.358V23.2058C165.358 21.6992 165.316 21.3868 165.11 21.3868C164.937 21.3868 164.862 21.2122 164.862 20.8081C164.862 20.4183 164.786 20.2293 164.627 20.2293C164.498 20.2293 164.343 20.0061 164.284 19.7332C164.224 19.4604 164.069 19.2372 163.94 19.2372C163.81 19.2372 163.705 19.1255 163.705 18.9891C163.705 18.8527 163.593 18.7411 163.457 18.7411C163.32 18.7411 163.209 18.6354 163.209 18.5061C163.209 18.3769 162.985 18.2222 162.713 18.1623C162.44 18.1025 162.217 17.9477 162.217 17.8185C162.217 17.6469 161.994 17.5836 161.39 17.5836C160.935 17.5836 160.563 17.5091 160.563 17.4182C160.563 17.3263 160.122 17.2528 159.571 17.2528C159.02 17.2528 158.579 17.3263 158.579 17.4182ZM61.5492 29.1649C61.5814 37.3294 61.6482 40.781 61.7759 40.8641C61.8756 40.929 62.0034 41.2754 62.0601 41.6341C62.1167 41.9926 62.2771 42.3497 62.4163 42.4276C62.5557 42.5057 62.6696 42.7517 62.6696 42.9746C62.6696 43.2245 62.7647 43.3798 62.9177 43.3798C63.0554 43.3798 63.1657 43.5268 63.1657 43.7105C63.1657 43.8942 63.276 44.0412 63.4138 44.0412C63.5502 44.0412 63.6618 44.1447 63.6618 44.2714C63.6618 44.3979 63.8657 44.5527 64.1149 44.6152C64.3641 44.6777 64.6153 44.8055 64.6731 44.8991C64.731 44.9927 65.1224 45.1081 65.5429 45.1556C65.9635 45.203 66.3076 45.3065 66.3076 45.3856C66.3076 45.4648 66.9029 45.5294 67.6304 45.5294C68.358 45.5294 68.9533 45.4648 68.9533 45.3859C68.9533 45.3069 69.2635 45.2007 69.6429 45.1498C70.0221 45.0989 70.3978 44.9403 70.4778 44.7972C70.5578 44.6544 70.7313 44.5373 70.8632 44.5373C70.995 44.5373 71.103 44.4257 71.103 44.2892C71.103 44.1528 71.2146 44.0412 71.3511 44.0412C71.4875 44.0412 71.5991 43.9296 71.5991 43.7932C71.5991 43.6567 71.7107 43.5451 71.8471 43.5451C71.9836 43.5451 72.0952 43.4312 72.0952 43.292C72.0952 43.1526 72.198 42.9993 72.3237 42.951C72.4494 42.9027 72.6017 42.5538 72.6622 42.1756C72.7227 41.7974 72.8616 41.4326 72.9711 41.3652C73.1224 41.2716 73.1806 38.411 73.2145 29.4129L73.2591 17.5836L72.5531 17.5859C72.1648 17.587 71.6811 17.6325 71.4782 17.6869L71.1095 17.7858L71.0648 29.514C71.0317 38.2531 70.9711 41.2727 70.8267 41.3619C70.7202 41.4277 70.582 41.6853 70.5195 41.9345C70.457 42.1837 70.3015 42.3876 70.174 42.3876C70.0465 42.3876 69.8149 42.5364 69.6591 42.7183C69.502 42.9017 69.1713 43.049 68.9166 43.049C68.6034 43.049 68.4573 43.1342 68.4573 43.3169C68.4573 43.5425 68.2983 43.5734 67.452 43.5122C66.8991 43.4722 66.3967 43.3616 66.3358 43.2665C66.2748 43.1714 66.0501 43.039 65.8365 42.9723C65.4034 42.837 64.8193 42.3114 64.8193 42.0569C64.8193 41.9659 64.7163 41.8915 64.5906 41.8915C64.353 41.8915 64.164 41.4077 64.1602 40.7891C64.1589 40.5921 64.0649 40.3998 63.9512 40.3619C63.7891 40.308 63.7349 37.8432 63.6998 28.9384L63.655 17.5836H62.5794H61.5035L61.5492 29.1649ZM75.8434 17.6938C75.7827 17.7544 75.7331 23.922 75.7331 31.3994V44.9948L76.1052 45.0945C76.3099 45.1493 76.7936 45.1953 77.18 45.1964L77.8828 45.1987L77.8851 34.1609C77.8863 28.09 77.9322 22.9558 77.987 22.7511C78.1618 22.0989 78.3789 22.3507 78.3789 23.2058C78.3789 23.7951 78.4439 24.0326 78.6051 24.0326C78.7461 24.0326 78.8667 24.2962 78.9252 24.7317C78.9768 25.1164 79.0964 25.4569 79.191 25.4884C79.2855 25.5199 79.4115 25.9123 79.4709 26.3601C79.5409 26.8872 79.6589 27.1744 79.8058 27.1744C79.9642 27.1744 80.0325 27.3985 80.0325 27.9186C80.0325 28.4697 80.0968 28.6627 80.2805 28.6627C80.4679 28.6627 80.5286 28.8648 80.5286 29.4895C80.5286 30.1142 80.5892 30.3163 80.7766 30.3163C80.96 30.3163 81.0246 30.5083 81.0246 31.0521C81.0246 31.494 81.1138 31.8409 81.2475 31.9203C81.3702 31.993 81.5164 32.3443 81.5725 32.7006C81.6285 33.0571 81.7595 33.4013 81.8635 33.4656C81.9677 33.5299 82.0915 33.9266 82.139 34.3471C82.1947 34.8424 82.305 35.1117 82.4517 35.1117C82.6099 35.1117 82.6782 35.3361 82.6782 35.8559C82.6782 36.407 82.7426 36.6 82.9263 36.6C83.0996 36.6 83.1743 36.7746 83.1743 37.1787C83.1743 37.5829 83.2491 37.7575 83.4224 37.7575C83.6097 37.7575 83.6704 37.9596 83.6704 38.5843C83.6704 39.209 83.7311 39.4111 83.9184 39.4111C84.1022 39.4111 84.1665 39.6041 84.1665 40.1552C84.1665 40.6753 84.2348 40.8994 84.3932 40.8994C84.54 40.8994 84.6581 41.1866 84.728 41.7138C84.7874 42.1616 84.9134 42.554 85.008 42.5854C85.1026 42.617 85.2221 42.9574 85.2737 43.3421C85.3323 43.7776 85.4528 44.0412 85.5939 44.0412C85.7422 44.0412 85.8201 44.2405 85.8201 44.62V45.1987H86.7987C87.3369 45.1987 87.895 45.1536 88.0389 45.0984C88.2745 45.0079 88.3005 43.6463 88.3005 31.3911C88.3005 19.136 88.2745 17.7744 88.0389 17.6839C87.895 17.6287 87.4486 17.5836 87.0467 17.5836H86.3162V28.4147C86.3162 37.9321 86.2861 39.2458 86.0681 39.2458C85.8844 39.2458 85.8201 39.0528 85.8201 38.5016C85.8201 37.9505 85.7558 37.7575 85.572 37.7575C85.3847 37.7575 85.324 37.5554 85.324 36.9307C85.324 36.306 85.2633 36.1039 85.076 36.1039C84.9037 36.1039 84.8279 35.9306 84.8279 35.5369C84.8279 35.2252 84.7183 34.8604 84.5845 34.7266C84.4506 34.5927 84.2905 34.1594 84.2287 33.7639C84.1668 33.3684 84.0476 32.9996 83.9634 32.9445C83.8794 32.8895 83.7693 32.5359 83.7188 32.1591C83.6618 31.7343 83.5409 31.4738 83.4005 31.4738C83.2393 31.4738 83.1743 31.2364 83.1743 30.647C83.1743 30.0223 83.1136 29.8202 82.9263 29.8202C82.753 29.8202 82.6782 29.6456 82.6782 29.2415C82.6782 28.8373 82.6035 28.6627 82.4302 28.6627C82.2468 28.6627 82.1822 28.4707 82.1822 27.9268C82.1822 27.485 82.093 27.1381 81.9593 27.0587C81.8366 26.9859 81.6904 26.6347 81.6343 26.2784C81.5783 25.9218 81.4473 25.5777 81.3433 25.5134C81.2391 25.4491 81.1152 25.0524 81.0678 24.6319C81.0121 24.1366 80.9018 23.8672 80.7551 23.8672C80.5968 23.8672 80.5286 23.6428 80.5286 23.1231C80.5286 22.572 80.4642 22.379 80.2805 22.379C80.0965 22.379 80.0325 22.1855 80.0325 21.6298C80.0325 21.1161 79.9544 20.8504 79.7844 20.7853C79.6161 20.7206 79.5364 20.4567 79.5364 19.9636C79.5364 19.4584 79.4673 19.2372 79.3097 19.2372C79.1625 19.2372 79.0444 18.9471 78.9732 18.4104L78.8635 17.5836H77.4085C76.6084 17.5836 75.9039 17.6332 75.8434 17.6938ZM90.8222 17.693C90.6592 17.7588 90.6155 20.653 90.6155 31.3857V44.9948L90.9876 45.0945C91.4638 45.222 92.2476 45.222 92.7239 45.0945L93.0959 44.9948V31.3895C93.0959 19.136 93.07 17.7744 92.8343 17.6839C92.5273 17.566 91.1212 17.5725 90.8222 17.693ZM124.224 31.3498L124.266 45.116L125.3 45.1653L126.333 45.2144V39.0883V32.9621H128.648C130.596 32.9621 130.963 33.0014 130.963 33.2101C130.963 33.3834 131.138 33.4581 131.542 33.4581C131.946 33.4581 132.121 33.5329 132.121 33.7062C132.121 33.8426 132.216 33.9542 132.332 33.9542C132.645 33.9542 133.063 34.5085 133.192 35.0937C133.254 35.3765 133.41 35.6078 133.54 35.6078C133.737 35.6078 133.775 36.2914 133.775 39.8245C133.775 43.4624 133.809 44.0412 134.023 44.0412C134.196 44.0412 134.271 44.2158 134.271 44.62V45.1987H135.367H136.463L136.377 44.4341C136.33 44.0136 136.213 43.6215 136.118 43.563C136.008 43.4949 135.927 41.9459 135.894 39.2778C135.858 36.4379 135.783 35.0615 135.657 34.9814C135.556 34.9168 135.416 34.6811 135.346 34.4581C135.276 34.2348 135.117 33.9506 134.993 33.8261C134.869 33.7017 134.767 33.4563 134.767 33.281C134.767 33.1056 134.655 32.9621 134.519 32.9621C134.382 32.9621 134.271 32.8597 134.271 32.7347C134.271 32.6097 134.047 32.4627 133.775 32.4081C133.386 32.3304 133.279 32.2216 133.279 31.9044C133.279 31.5896 133.388 31.476 133.775 31.3911C134.047 31.3313 134.271 31.1765 134.271 31.0474C134.271 30.918 134.382 30.8124 134.519 30.8124C134.655 30.8124 134.767 30.7008 134.767 30.5643C134.767 30.4279 134.869 30.3163 134.993 30.3163C135.133 30.3163 135.254 30.0559 135.311 29.631C135.362 29.2542 135.502 28.8848 135.622 28.8102C135.942 28.6126 135.942 21.4369 135.622 21.2393C135.502 21.1648 135.362 20.7953 135.311 20.4185C135.254 19.9937 135.133 19.7332 134.993 19.7332C134.869 19.7332 134.767 19.6216 134.767 19.4852C134.767 19.3488 134.655 19.2372 134.519 19.2372C134.382 19.2372 134.271 19.1255 134.271 18.9891C134.271 18.8527 134.159 18.7411 134.023 18.7411C133.886 18.7411 133.775 18.6328 133.775 18.5005C133.775 18.3566 133.542 18.2164 133.196 18.1514C132.864 18.0892 132.617 17.9447 132.617 17.8132C132.617 17.6232 131.888 17.5836 128.399 17.5836H124.182L124.224 31.3498ZM138.977 17.7903C138.934 17.904 138.917 24.0987 138.941 31.5565L138.983 45.116L139.629 45.169C139.984 45.1979 140.449 45.1779 140.663 45.1245L141.05 45.0271V34.1991C141.05 24.6845 141.081 23.3712 141.298 23.3712C141.463 23.3712 141.547 23.5355 141.547 23.859C141.547 24.1307 141.662 24.4114 141.806 24.4925C141.952 24.5737 142.11 24.9596 142.164 25.3662C142.218 25.7667 142.361 26.194 142.483 26.3156C142.604 26.4371 142.704 26.7918 142.704 27.1035C142.704 27.4972 142.78 27.6705 142.952 27.6705C143.139 27.6705 143.2 27.8726 143.2 28.4973C143.2 29.1221 143.261 29.3241 143.448 29.3241C143.632 29.3241 143.696 29.5171 143.696 30.0683C143.696 30.588 143.764 30.8124 143.923 30.8124C144.069 30.8124 144.18 31.0817 144.235 31.577C144.283 31.9975 144.407 32.3942 144.511 32.4585C144.615 32.5229 144.746 32.867 144.802 33.2235C144.859 33.5798 144.976 33.9182 145.063 33.9751C145.149 34.0321 145.259 34.4227 145.307 34.8432C145.362 35.3385 145.473 35.6078 145.619 35.6078C145.778 35.6078 145.846 35.8322 145.846 36.3519C145.846 36.9031 145.91 37.0961 146.094 37.0961C146.281 37.0961 146.342 37.2981 146.342 37.9229C146.342 38.5476 146.403 38.7497 146.59 38.7497C146.763 38.7497 146.838 38.9243 146.838 39.3284C146.838 39.7084 146.916 39.9072 147.065 39.9072C147.212 39.9072 147.33 40.1944 147.4 40.7216C147.459 41.1694 147.582 41.5608 147.673 41.5911C147.764 41.6213 147.886 41.9424 147.945 42.3048C148.004 42.6671 148.151 43.0624 148.272 43.1835C148.393 43.3044 148.492 43.6586 148.492 43.9703C148.492 44.364 148.567 44.5373 148.74 44.5373C148.877 44.5373 148.988 44.6843 148.988 44.868C148.988 45.1648 149.098 45.1987 150.063 45.1987H151.137V31.3911V17.5836H150.407C149.032 17.5836 149.153 16.6081 149.151 27.6469C149.15 33.0714 149.104 37.6768 149.049 37.8815C148.994 38.0862 148.846 38.2536 148.72 38.2536C148.556 38.2536 148.492 38.0204 148.492 37.4268C148.492 36.8021 148.431 36.6 148.244 36.6C148.06 36.6 147.996 36.407 147.996 35.8559C147.996 35.3361 147.927 35.1117 147.769 35.1117C147.622 35.1117 147.512 34.8424 147.456 34.3471C147.409 33.9266 147.285 33.5299 147.181 33.4656C147.077 33.4013 146.946 33.0571 146.89 32.7006C146.834 32.3443 146.688 31.993 146.565 31.9203C146.442 31.8475 146.342 31.5686 146.342 31.3002C146.342 30.9767 146.258 30.8124 146.094 30.8124C145.907 30.8124 145.846 30.6103 145.846 29.9856C145.846 29.3608 145.785 29.1588 145.598 29.1588C145.414 29.1588 145.35 28.9658 145.35 28.4147C145.35 27.8635 145.285 27.6705 145.102 27.6705C144.918 27.6705 144.854 27.4785 144.854 26.9347C144.854 26.4928 144.765 26.1459 144.631 26.0665C144.508 25.9938 144.362 25.6426 144.306 25.2862C144.25 24.9297 144.119 24.5856 144.015 24.5212C143.911 24.4569 143.787 24.0602 143.739 23.6397C143.684 23.1445 143.573 22.8751 143.427 22.8751C143.268 22.8751 143.2 22.6507 143.2 22.131C143.2 21.5798 143.136 21.3868 142.952 21.3868C142.765 21.3868 142.704 21.1848 142.704 20.56C142.704 19.9353 142.643 19.7332 142.456 19.7332C142.29 19.7332 142.208 19.5674 142.208 19.232C142.208 18.939 142.105 18.6911 141.96 18.6356C141.819 18.5813 141.712 18.3346 141.712 18.0619V17.5836H140.384C139.474 17.5836 139.031 17.6485 138.977 17.7903ZM26.2904 17.997C26.2904 18.1334 26.402 18.245 26.5384 18.245C26.6748 18.245 26.7864 18.3566 26.7864 18.493C26.7864 18.6295 26.8981 18.7411 27.0345 18.7411C27.1709 18.7411 27.2825 18.8527 27.2825 18.9891C27.2825 19.1255 27.3941 19.2372 27.5306 19.2372C27.667 19.2372 27.7786 19.3488 27.7786 19.4852C27.7786 19.6216 27.7042 19.7332 27.6132 19.7332C27.5223 19.7332 27.4479 19.8449 27.4479 19.9813C27.4479 20.119 27.3009 20.2293 27.1172 20.2293C26.9353 20.2293 26.7864 20.335 26.7864 20.4643C26.7864 20.5934 26.5632 20.7482 26.2904 20.8081C26.0175 20.8679 25.7943 20.9878 25.7943 21.0745C25.7943 21.161 25.6641 21.2812 25.5049 21.3414C25.3457 21.4017 25.1171 21.5482 24.9971 21.667C24.8769 21.7857 24.6349 21.8829 24.4597 21.8829C24.2842 21.8829 24.1407 21.9945 24.1407 22.131C24.1407 22.2674 24.0291 22.379 23.8926 22.379C23.7562 22.379 23.6446 22.4906 23.6446 22.627C23.6446 22.7924 23.4792 22.8751 23.1485 22.8751C22.8178 22.8751 22.6524 22.9578 22.6524 23.1231C22.6524 23.2614 22.5053 23.3712 22.3201 23.3712C22.1373 23.3712 21.8604 23.52 21.7046 23.7019C21.5488 23.8838 21.3264 24.0326 21.2102 24.0326C21.0939 24.0326 20.9988 24.1442 20.9988 24.2806C20.9988 24.446 20.8335 24.5287 20.5028 24.5287C20.172 24.5287 20.0067 24.6114 20.0067 24.7767C20.0067 24.9145 19.8597 25.0248 19.676 25.0248C19.4922 25.0248 19.3452 25.1351 19.3452 25.2728C19.3452 25.4271 19.1891 25.5208 18.9318 25.5208C18.6745 25.5208 18.5184 25.4271 18.5184 25.2728C18.5184 25.1364 18.63 25.0248 18.7665 25.0248C18.9029 25.0248 19.0145 24.9131 19.0145 24.7767C19.0145 24.6403 19.1261 24.5287 19.2626 24.5287C19.399 24.5287 19.5106 24.4171 19.5106 24.2806C19.5106 24.1442 19.6222 24.0326 19.7586 24.0326C19.8951 24.0326 20.0067 23.921 20.0067 23.7846C20.0067 23.6481 20.1183 23.5365 20.2547 23.5365C20.3911 23.5365 20.5028 23.4249 20.5028 23.2885C20.5028 23.1521 20.6144 23.0404 20.7508 23.0404C20.8872 23.0404 20.9988 22.9265 20.9988 22.7873C20.9988 22.6479 21.1105 22.4911 21.2469 22.4389C21.3833 22.3864 21.4949 22.2399 21.4949 22.1133C21.4949 21.9866 21.6437 21.8829 21.8256 21.8829C22.0094 21.8829 22.1564 21.7726 22.1564 21.6349C22.1564 21.4985 22.268 21.3868 22.4044 21.3868C22.5408 21.3868 22.6524 21.2752 22.6524 21.1388C22.6524 21.0024 22.7641 20.8908 22.9005 20.8908C23.0382 20.8908 23.1485 20.7438 23.1485 20.56C23.1485 20.3763 23.2588 20.2293 23.3966 20.2293C23.533 20.2293 23.6446 20.1177 23.6446 19.9813C23.6446 19.8449 23.7562 19.7332 23.8926 19.7332C24.0291 19.7332 24.1407 19.6216 24.1407 19.4852C24.1407 19.3488 24.2463 19.2372 24.3757 19.2372C24.5048 19.2372 24.6596 19.0139 24.7194 18.7411C24.7793 18.4682 24.9341 18.245 25.0632 18.245C25.1925 18.245 25.2982 18.1334 25.2982 17.997C25.2982 17.8316 25.4636 17.7489 25.7943 17.7489C26.125 17.7489 26.2904 17.8316 26.2904 17.997ZM116.742 19.4852C116.742 19.6585 116.917 19.7332 117.321 19.7332C117.725 19.7332 117.9 19.808 117.9 19.9813C117.9 20.1177 118.012 20.2293 118.148 20.2293C118.284 20.2293 118.396 20.3409 118.396 20.4774C118.396 20.6138 118.499 20.7254 118.626 20.7254C118.756 20.7254 118.901 20.9698 118.962 21.2921C119.02 21.6038 119.159 21.889 119.27 21.9259C119.424 21.9775 119.481 24.195 119.516 31.4462C119.555 39.5983 119.529 40.8994 119.323 40.8994C119.191 40.8994 119.036 41.1163 118.978 41.3815C118.92 41.6469 118.765 41.9049 118.634 41.9552C118.503 42.0055 118.396 42.1604 118.396 42.2998C118.396 42.439 118.284 42.553 118.148 42.553C118.012 42.553 117.9 42.6646 117.9 42.801C117.9 42.9677 117.733 43.049 117.392 43.049C117.113 43.049 116.773 43.1607 116.636 43.2971C116.483 43.4505 116.077 43.5451 115.573 43.5451C114.959 43.5451 114.758 43.4839 114.758 43.2971C114.758 43.1362 114.597 43.049 114.299 43.049C114.044 43.049 113.713 42.9017 113.556 42.7183C113.401 42.5364 113.167 42.3876 113.037 42.3876C112.907 42.3876 112.751 42.1644 112.691 41.8915C112.631 41.6187 112.477 41.3954 112.347 41.3954C112.147 41.3954 112.112 39.9249 112.112 31.3911C112.112 22.8574 112.147 21.3868 112.347 21.3868C112.477 21.3868 112.631 21.1636 112.691 20.8908C112.751 20.6179 112.907 20.3947 113.037 20.3947C113.167 20.3947 113.401 20.2459 113.556 20.064C113.713 19.8806 114.044 19.7332 114.299 19.7332C114.597 19.7332 114.758 19.6461 114.758 19.4852C114.758 19.2922 114.979 19.2372 115.75 19.2372C116.522 19.2372 116.742 19.2922 116.742 19.4852ZM22.0952 20.1053C22.0404 20.3098 21.9945 20.5332 21.9933 20.6014C21.992 20.6695 21.8794 20.7254 21.743 20.7254C21.6065 20.7254 21.4949 20.837 21.4949 20.9734C21.4949 21.1099 21.3833 21.2215 21.2469 21.2215C21.1105 21.2215 20.9988 21.3331 20.9988 21.4695C20.9988 21.6059 20.8872 21.7176 20.7508 21.7176C20.613 21.7176 20.5028 21.8646 20.5028 22.0483C20.5028 22.232 20.3925 22.379 20.2547 22.379C20.1183 22.379 20.0067 22.4906 20.0067 22.627C20.0067 22.7635 19.9137 22.8764 19.8 22.8779C19.548 22.8814 18.8491 23.5952 18.8491 23.8492C18.8491 23.9501 18.7375 24.0326 18.6011 24.0326C18.4647 24.0326 18.3531 24.1442 18.3531 24.2806C18.3531 24.4171 18.2415 24.5287 18.105 24.5287C17.9686 24.5287 17.857 24.6403 17.857 24.7767C17.857 24.9131 17.7454 25.0248 17.6089 25.0248C17.4725 25.0248 17.3609 24.9131 17.3609 24.7767C17.3609 24.6403 17.4725 24.5287 17.6089 24.5287C17.7454 24.5287 17.857 24.3852 17.857 24.2097C17.857 24.0344 17.9686 23.7793 18.105 23.6429C18.2415 23.5064 18.3531 23.2779 18.3531 23.1349C18.3531 22.992 18.4587 22.8751 18.588 22.8751C18.7172 22.8751 18.872 22.6518 18.9318 22.379C18.9917 22.1062 19.1093 21.8829 19.1929 21.8829C19.2768 21.8829 19.3452 21.7713 19.3452 21.6349C19.3452 21.4971 19.4922 21.3868 19.676 21.3868C19.8578 21.3868 20.0067 21.2812 20.0067 21.1519C20.0067 21.0227 20.2299 20.8679 20.5028 20.8081C20.7756 20.7482 20.9988 20.5934 20.9988 20.4643C20.9988 20.335 21.1477 20.2293 21.3296 20.2293C21.5133 20.2293 21.6603 20.119 21.6603 19.9813C21.6603 19.8449 21.7805 19.7332 21.9277 19.7332C22.1241 19.7332 22.1686 19.8318 22.0952 20.1053ZM132.121 19.9813C132.121 20.1177 132.233 20.2293 132.369 20.2293C132.505 20.2293 132.617 20.3432 132.617 20.4825C132.617 20.6219 132.722 20.776 132.85 20.8253C132.978 20.8744 133.133 21.1132 133.194 21.3557C133.255 21.5985 133.392 21.8508 133.498 21.9167C133.78 22.0904 133.772 28.5258 133.49 28.6195C133.38 28.6566 133.241 28.9418 133.183 29.2535C133.122 29.5758 132.977 29.8202 132.847 29.8202C132.72 29.8202 132.617 29.9318 132.617 30.0683C132.617 30.2336 132.452 30.3163 132.121 30.3163C131.79 30.3163 131.625 30.399 131.625 30.5643C131.625 30.7745 131.221 30.8124 128.979 30.8124H126.333V25.2728V19.7332H129.227C131.689 19.7332 132.121 19.7703 132.121 19.9813ZM28.3921 21.0561C28.4397 21.238 28.5816 21.3868 28.7074 21.3868C28.8768 21.3868 28.9361 21.6445 28.9361 22.379C28.9361 23.1507 28.8811 23.3712 28.6881 23.3712C28.5517 23.3712 28.4401 23.2595 28.4401 23.1231C28.4401 22.9394 28.2471 22.8751 27.6959 22.8751C27.1448 22.8751 26.9518 22.8108 26.9518 22.627C26.9518 22.4537 26.7772 22.379 26.373 22.379C25.9689 22.379 25.7943 22.3043 25.7943 22.131C25.7943 21.9656 25.9596 21.8829 26.2904 21.8829C26.6211 21.8829 26.7864 21.8002 26.7864 21.6349C26.7864 21.4971 26.9335 21.3868 27.1172 21.3868C27.2991 21.3868 27.4479 21.2807 27.4479 21.1509C27.4479 20.9448 27.6848 20.8107 28.1662 20.7446C28.2429 20.734 28.3446 20.8742 28.3921 21.0561ZM30.4244 21.6349C30.4244 21.7713 30.5274 21.8829 30.6531 21.8829C30.7789 21.8829 30.9267 22.0503 30.9816 22.255C31.1329 22.8197 31.1126 22.8751 30.7551 22.8751C30.5714 22.8751 30.4244 22.9854 30.4244 23.1231C30.4244 23.2595 30.3586 23.3712 30.2784 23.3712C30.111 23.3712 29.9339 22.8025 29.9306 22.255C29.9293 22.0503 29.8539 21.8829 29.7629 21.8829C29.672 21.8829 29.5976 21.7713 29.5976 21.6349C29.5976 21.4806 29.7537 21.3868 30.011 21.3868C30.2683 21.3868 30.4244 21.4806 30.4244 21.6349ZM53.9287 21.8829C54.0979 21.8829 54.2363 21.9945 54.2363 22.131C54.2363 22.2674 54.3479 22.379 54.4843 22.379C54.6979 22.379 54.7323 22.9301 54.7323 26.3476C54.7323 29.7652 54.6979 30.3163 54.4843 30.3163C54.3479 30.3163 54.2363 30.4114 54.2363 30.5276C54.2363 30.6439 54.0866 30.8671 53.9037 31.0237C53.4571 31.406 51.5905 31.4356 51.5905 31.0604C51.5905 30.924 51.4858 30.8124 51.3578 30.8124C51.1824 30.8124 51.0959 30.4213 51.0058 29.218C50.8388 26.9901 50.9894 22.4967 51.2338 22.4152C51.339 22.3802 51.4251 22.2512 51.4251 22.1286C51.4251 21.8446 51.972 21.7276 52.8952 21.8146C53.2944 21.8522 53.7594 21.8829 53.9287 21.8829ZM24.6368 23.1865C24.6368 23.2668 24.7856 23.3715 24.9675 23.4191C25.2082 23.4821 25.2982 23.6447 25.2982 24.0171C25.2982 24.3617 25.3792 24.5287 25.5462 24.5287C25.7116 24.5287 25.7943 24.694 25.7943 25.0248C25.7943 25.3555 25.877 25.5208 26.0423 25.5208C26.1801 25.5208 26.2904 25.6679 26.2904 25.8516C26.2904 26.0353 26.4007 26.1823 26.5384 26.1823C26.7038 26.1823 26.7864 26.3476 26.7864 26.6784C26.7864 27.0091 26.8691 27.1744 27.0345 27.1744C27.1709 27.1744 27.2825 27.2861 27.2825 27.4225C27.2825 27.6371 26.6487 27.6705 22.5698 27.6705C18.4908 27.6705 17.857 27.7039 17.857 27.9186C17.857 28.055 17.7454 28.1666 17.6089 28.1666C17.4725 28.1666 17.3609 28.055 17.3609 27.9186C17.3609 27.7821 17.4725 27.6705 17.6089 27.6705C17.7454 27.6705 17.857 27.5589 17.857 27.4225C17.857 27.2847 18.004 27.1744 18.1877 27.1744C18.3714 27.1744 18.5184 27.0642 18.5184 26.9264C18.5184 26.7713 18.6752 26.6784 18.937 26.6784C19.1673 26.6784 19.3985 26.5668 19.4507 26.4303C19.5032 26.2939 19.6497 26.1823 19.7763 26.1823C19.903 26.1823 20.0067 26.0766 20.0067 25.9473C20.0067 25.8182 20.2299 25.6634 20.5028 25.6035C20.7756 25.5437 20.9988 25.3889 20.9988 25.2597C20.9988 25.1089 21.1766 25.0248 21.4949 25.0248C21.8256 25.0248 21.991 24.9421 21.991 24.7767C21.991 24.639 22.138 24.5287 22.3217 24.5287C22.5036 24.5287 22.6524 24.423 22.6524 24.2937C22.6524 24.1646 22.8757 24.0098 23.1485 23.9499C23.4214 23.8901 23.6446 23.7725 23.6446 23.6888C23.6446 23.605 23.7585 23.5365 23.8978 23.5365C24.0372 23.5365 24.1939 23.4249 24.2462 23.2885C24.3487 23.0214 24.6368 22.9462 24.6368 23.1865ZM27.3424 23.7846C27.3979 23.9296 27.6458 24.0326 27.9388 24.0326C28.2742 24.0326 28.4401 24.1148 28.4401 24.2806C28.4401 24.446 28.6054 24.5287 28.9361 24.5287C29.2669 24.5287 29.4322 24.6114 29.4322 24.7767C29.4322 24.9131 29.5341 25.0248 29.6588 25.0248C29.8898 25.0248 30.1385 26.3691 29.9827 26.7753C29.8866 27.0255 29.373 27.1693 28.5641 27.1721C28.0524 27.1741 27.944 27.1162 27.944 26.8421C27.944 26.6594 27.7951 26.3824 27.6132 26.2266C27.4299 26.0695 27.2825 25.7388 27.2825 25.4841C27.2825 25.186 27.1954 25.0248 27.0345 25.0248C26.8967 25.0248 26.7864 24.8778 26.7864 24.694C26.7864 24.5103 26.6762 24.3633 26.5384 24.3633C26.3841 24.3633 26.2904 24.2072 26.2904 23.9499C26.2904 23.6042 26.3687 23.5365 26.7688 23.5365C27.0414 23.5365 27.2881 23.6432 27.3424 23.7846ZM31.544 24.167C31.5801 24.275 31.4916 24.3633 31.3476 24.3633C31.2037 24.3633 31.0858 24.2454 31.0858 24.1016C31.0858 23.8095 31.4418 23.8603 31.544 24.167ZM31.4777 25.3968C31.6535 26.0531 31.5943 26.513 31.3339 26.513C31.1501 26.513 31.0858 26.32 31.0858 25.7689C31.0858 24.9828 31.3097 24.7701 31.4777 25.3968ZM34.0623 27.1744C34.0623 27.4473 33.9879 27.6705 33.8969 27.6705C33.806 27.6705 33.7316 27.9217 33.7316 28.2286C33.7316 29.1267 33.5424 29.8202 33.2975 29.8202C33.1391 29.8202 33.0701 29.6 33.0701 29.0938C33.0701 28.6007 32.9904 28.3368 32.8221 28.2721C32.6771 28.2166 32.5741 27.9687 32.5741 27.6757C32.5741 27.2131 32.6187 27.1744 33.1528 27.1744C33.557 27.1744 33.7316 27.0997 33.7316 26.9264C33.7316 26.79 33.806 26.6784 33.8969 26.6784C33.9879 26.6784 34.0623 26.9016 34.0623 27.1744ZM24.1407 28.7275C24.1407 29.0205 24.0234 29.1523 23.6876 29.2367C23.4384 29.2992 23.1872 29.427 23.1293 29.5206C23.0715 29.6142 22.6801 29.7296 22.2595 29.7771C21.7643 29.8328 21.4949 29.9431 21.4949 30.0898C21.4949 30.2313 21.3086 30.3163 20.9988 30.3163C20.6681 30.3163 20.5028 30.399 20.5028 30.5643C20.5028 30.7481 20.3098 30.8124 19.7586 30.8124C19.2075 30.8124 19.0145 30.8767 19.0145 31.0604C19.0145 31.2337 18.8399 31.3085 18.4357 31.3085C18.0562 31.3085 17.857 31.3863 17.857 31.5347C17.857 31.6752 17.5956 31.7961 17.1674 31.8535C16.7883 31.9044 16.4126 32.063 16.3325 32.206C16.2515 32.3507 15.9707 32.466 15.699 32.466C15.3756 32.466 15.2112 32.5497 15.2112 32.714C15.2112 32.8977 15.0182 32.9621 14.4671 32.9621C13.916 32.9621 13.723 33.0264 13.723 33.2101C13.723 33.3834 13.5484 33.4581 13.1442 33.4581C12.7401 33.4581 12.5655 33.5329 12.5655 33.7062C12.5655 33.8899 12.3725 33.9542 11.8213 33.9542C11.2702 33.9542 11.0772 33.8899 11.0772 33.7062C11.0772 33.5698 11.1888 33.4581 11.3253 33.4581C11.4617 33.4581 11.5733 33.3465 11.5733 33.2101C11.5733 33.0737 11.6849 32.9621 11.8213 32.9621C11.9578 32.9621 12.0694 32.8504 12.0694 32.714C12.0694 32.5776 12.181 32.466 12.3174 32.466C12.4538 32.466 12.5655 32.3805 12.5655 32.276C12.5655 32.1715 12.8259 31.833 13.1442 31.5239C13.4625 31.2147 13.723 30.8165 13.723 30.6391C13.723 30.4615 13.8346 30.3163 13.971 30.3163C14.1074 30.3163 14.2191 30.2047 14.2191 30.0683C14.2191 29.9318 14.3307 29.8202 14.4671 29.8202C14.6035 29.8202 14.7151 29.7086 14.7151 29.5722C14.7151 29.4358 14.8268 29.3241 14.9632 29.3241C15.0996 29.3241 15.2112 29.2238 15.2112 29.1011C15.2112 28.8229 17.3186 28.6648 21.0402 28.6635C22.6657 28.663 23.6446 28.6005 23.6446 28.4973C23.6446 28.4064 23.7562 28.332 23.8926 28.332C24.0439 28.332 24.1407 28.4861 24.1407 28.7275ZM26.2904 29.5722C26.2904 29.7086 26.1868 29.8202 26.0602 29.8202C25.9337 29.8202 25.7809 30.0165 25.7207 30.2563C25.6605 30.4962 25.392 30.8848 25.1241 31.1199C24.856 31.3551 24.6368 31.6425 24.6368 31.7587C24.6368 31.8748 24.5251 31.9699 24.3887 31.9699C24.2234 31.9699 24.1407 32.1353 24.1407 32.466C24.1407 32.7967 24.058 32.9621 23.8926 32.9621C23.7562 32.9621 23.6446 33.0737 23.6446 33.2101C23.6446 33.3465 23.533 33.4581 23.3966 33.4581C23.2601 33.4581 23.1485 33.5721 23.1485 33.7113C23.1485 33.8507 23.0369 34.0075 22.9005 34.0597C22.7641 34.1121 22.6524 34.2593 22.6524 34.387C22.6524 34.5145 22.5036 34.7463 22.3217 34.9021C22.1398 35.0578 21.991 35.2802 21.991 35.3965C21.991 35.5127 21.8794 35.6078 21.743 35.6078C21.6052 35.6078 21.4949 35.7548 21.4949 35.9385C21.4949 36.1204 21.422 36.2693 21.3327 36.2693C21.2436 36.2693 21.1238 36.4553 21.0668 36.6827C20.9869 37.0008 20.856 37.0961 20.4986 37.0961C20.2431 37.0961 20.004 37.0055 19.9672 36.8947C19.9218 36.7587 19.3251 36.6719 18.1343 36.6278C16.7707 36.5773 16.3687 36.5102 16.3687 36.3333C16.3687 36.1538 16.0268 36.1039 14.7978 36.1039C13.5336 36.1039 13.2269 36.0569 13.2269 35.8635C13.2269 35.6819 12.9564 35.611 12.1239 35.5741C11.4256 35.543 10.9959 35.4492 10.9525 35.3184C10.9064 35.1789 11.0766 35.1117 11.4769 35.1117C11.8933 35.1117 12.0694 35.038 12.0694 34.8637C12.0694 34.6914 12.2427 34.6157 12.6364 34.6157C12.9481 34.6157 13.3058 34.5131 13.4311 34.3878C13.5565 34.2625 13.8966 34.1077 14.1871 34.0438C14.4787 33.9799 14.7151 33.8228 14.7151 33.6931C14.7151 33.5249 14.9266 33.4581 15.4593 33.4581C16.0104 33.4581 16.2034 33.3938 16.2034 33.2101C16.2034 33.0368 16.378 32.9621 16.7821 32.9621C17.1863 32.9621 17.3609 32.8873 17.3609 32.714C17.3609 32.5417 17.5342 32.466 17.9279 32.466C18.2396 32.466 18.6064 32.3544 18.7428 32.2179C18.8792 32.0815 19.1785 31.9699 19.4079 31.9699C19.6373 31.9699 19.8904 31.8528 19.9705 31.71C20.0505 31.5669 20.4262 31.4083 20.8054 31.3574C21.2335 31.3 21.4949 31.1791 21.4949 31.0386C21.4949 30.8903 21.6942 30.8124 22.0737 30.8124C22.4778 30.8124 22.6524 30.7376 22.6524 30.5643C22.6524 30.391 22.8271 30.3163 23.2312 30.3163C23.6353 30.3163 23.81 30.2416 23.81 30.0683C23.81 29.8888 23.9943 29.8202 24.4765 29.8202C24.9166 29.8202 25.1755 29.7359 25.2383 29.5722C25.2926 29.4308 25.5393 29.3241 25.812 29.3241C26.127 29.3241 26.2904 29.4088 26.2904 29.5722ZM32.5741 33.7889C32.5741 33.8798 32.4996 33.9542 32.4087 33.9542C32.3177 33.9542 32.2433 33.8798 32.2433 33.7889C32.2433 33.6979 32.3177 33.6235 32.4087 33.6235C32.4996 33.6235 32.5741 33.6979 32.5741 33.7889ZM11.0772 34.2849C11.0772 34.3759 10.9656 34.4503 10.8292 34.4503C10.6928 34.4503 10.5811 34.3759 10.5811 34.2849C10.5811 34.194 10.6928 34.1196 10.8292 34.1196C10.9656 34.1196 11.0772 34.194 11.0772 34.2849ZM10.979 36.4095C11.0266 36.4866 11.7522 36.5983 12.5916 36.658C13.4308 36.7176 14.168 36.848 14.2296 36.9479C14.2936 37.0514 15.098 37.1682 16.0995 37.2193C17.4247 37.2869 17.857 37.3641 17.857 37.5333C17.857 37.699 18.1373 37.7575 18.9318 37.7575H20.0067V38.2536C20.0067 38.5719 19.9225 38.7497 19.7717 38.7497C19.6425 38.7497 19.4893 38.9666 19.4309 39.2319C19.3727 39.4973 19.2179 39.7552 19.0871 39.8055C18.9563 39.8558 18.8491 40.0772 18.8491 40.2978C18.8491 40.5182 18.7375 40.7414 18.6011 40.7939C18.4647 40.8461 18.3531 41.0029 18.3531 41.1423C18.3531 41.2815 18.2415 41.3954 18.105 41.3954C17.9317 41.3954 17.857 41.5701 17.857 41.9742C17.857 42.3783 17.7822 42.553 17.6089 42.553C17.4436 42.553 17.3609 42.7183 17.3609 43.049C17.3609 43.3798 17.2782 43.5451 17.1129 43.5451C16.9764 43.5451 16.8648 43.6567 16.8648 43.7932C16.8648 43.9296 16.7532 44.0412 16.6168 44.0412C16.4804 44.0412 16.3687 43.9296 16.3687 43.7932C16.3687 43.6567 16.2862 43.5451 16.1854 43.5451C15.9314 43.5451 15.2175 42.8463 15.214 42.5943C15.2125 42.4807 15.0996 42.3876 14.9632 42.3876C14.8089 42.3876 14.7151 42.2315 14.7151 41.9742C14.7151 41.7169 14.6214 41.5608 14.4671 41.5608C14.3294 41.5608 14.2191 41.4138 14.2191 41.2301C14.2191 41.0464 14.1088 40.8994 13.971 40.8994C13.8346 40.8994 13.723 40.7877 13.723 40.6513C13.723 40.5149 13.6114 40.4033 13.4749 40.4033C13.3385 40.4033 13.2269 40.3208 13.2269 40.2199C13.2269 39.9659 12.5281 39.252 12.2761 39.2486C12.1573 39.2469 12.0694 39.0348 12.0694 38.7497C12.0694 38.419 11.9867 38.2536 11.8213 38.2536C11.6849 38.2536 11.5733 38.142 11.5733 38.0056C11.5733 37.8691 11.4617 37.7575 11.3253 37.7575C11.1888 37.7575 11.0772 37.6436 11.0772 37.5043C11.0772 37.3649 10.9656 37.2082 10.8292 37.1559C10.6928 37.1035 10.5811 36.957 10.5811 36.8303C10.5811 36.7037 10.4695 36.6 10.3331 36.6C10.1967 36.6 10.0851 36.5256 10.0851 36.4346C10.0851 36.234 10.8571 36.2122 10.979 36.4095ZM8.92753 37.7575V38.7497H8.43145C8.10073 38.7497 7.93537 38.8324 7.93537 38.9977C7.93537 39.1355 7.78836 39.2458 7.60465 39.2458C7.42275 39.2458 7.27393 39.3514 7.27393 39.4807C7.27393 39.6099 7.05069 39.7647 6.77785 39.8245C6.505 39.8844 6.28176 40.0392 6.28176 40.1683C6.28176 40.3191 6.104 40.4033 5.78568 40.4033C5.45496 40.4033 5.2896 40.486 5.2896 40.6513C5.2896 40.7877 5.17798 40.8994 5.04156 40.8994C4.90514 40.8994 4.79352 40.7877 4.79352 40.6513C4.79352 40.5149 4.90514 40.4033 5.04156 40.4033C5.17798 40.4033 5.2896 40.2917 5.2896 40.1552C5.2896 40.0188 5.40122 39.9072 5.53764 39.9072C5.67407 39.9072 5.78568 39.7956 5.78568 39.6592C5.78568 39.5227 5.8973 39.4111 6.03372 39.4111C6.17147 39.4111 6.28176 39.2641 6.28176 39.0804C6.28176 38.8967 6.39206 38.7497 6.52981 38.7497C6.66623 38.7497 6.77785 38.6381 6.77785 38.5016C6.77785 38.3639 6.92485 38.2536 7.10857 38.2536C7.29228 38.2536 7.43929 38.1433 7.43929 38.0056C7.43929 37.8691 7.55091 37.7575 7.68733 37.7575C7.82375 37.7575 7.93537 37.6459 7.93537 37.5095C7.93537 37.373 8.04699 37.2614 8.18341 37.2614C8.31983 37.2614 8.43145 37.1498 8.43145 37.0134C8.43145 36.877 8.54307 36.7654 8.67949 36.7654C8.87247 36.7654 8.92753 36.9858 8.92753 37.7575ZM9.91969 37.5095C9.91969 37.6459 10.0313 37.7575 10.1677 37.7575C10.3042 37.7575 10.4158 37.8691 10.4158 38.0056C10.4158 38.142 10.5214 38.2536 10.6508 38.2536C10.7799 38.2536 10.9347 38.4768 10.9945 38.7497C11.0544 39.0225 11.2092 39.2458 11.3383 39.2458C11.4676 39.2458 11.5733 39.3946 11.5733 39.5765C11.5733 39.7602 11.6836 39.9072 11.8213 39.9072C11.9578 39.9072 12.0694 40.0188 12.0694 40.1552C12.0694 40.2917 12.181 40.4033 12.3174 40.4033C12.4538 40.4033 12.5655 40.5149 12.5655 40.6513C12.5655 40.7877 12.669 40.8994 12.7956 40.8994C12.9221 40.8994 13.0749 41.0956 13.1351 41.3354C13.1953 41.5753 13.4639 41.9639 13.7317 42.1991C13.9998 42.4342 14.2191 42.7216 14.2191 42.8379C14.2191 42.954 14.3307 43.049 14.4671 43.049C14.6035 43.049 14.7151 43.1607 14.7151 43.2971C14.7151 43.4335 14.8268 43.5451 14.9632 43.5451C15.0996 43.5451 15.2112 43.6591 15.2112 43.7983C15.2112 43.9377 15.3228 44.0944 15.4593 44.1467C15.9849 44.3484 15.5216 45.6948 14.9265 45.6948C14.8102 45.6948 14.7151 45.8064 14.7151 45.9428C14.7151 46.0806 14.5681 46.1909 14.3844 46.1909C14.2007 46.1909 14.0537 46.3012 14.0537 46.4389C14.0537 46.5932 13.8976 46.687 13.6403 46.687C13.383 46.687 13.2269 46.7807 13.2269 46.935C13.2269 47.0728 13.0799 47.183 12.8962 47.183C12.7125 47.183 12.5655 47.2933 12.5655 47.4311C12.5655 47.5675 12.4538 47.6791 12.3174 47.6791C12.181 47.6791 12.0694 47.7907 12.0694 47.9272C12.0694 48.0636 12.0135 48.1762 11.9454 48.1775C11.8772 48.1787 11.6538 48.2247 11.4493 48.2794C11.0989 48.3733 11.0772 48.3298 11.0772 47.5331C11.0772 46.9315 11.0124 46.687 10.8532 46.687C10.6813 46.687 10.6083 46.2006 10.5391 44.5986C10.4895 43.45 10.3746 42.464 10.2837 42.4076C10.1929 42.3511 10.0642 41.3935 9.99791 40.2793C9.93143 39.1651 9.81237 38.2536 9.73317 38.2536C9.65379 38.2536 9.58897 38.0304 9.58897 37.7575C9.58897 37.4847 9.66338 37.2614 9.75433 37.2614C9.84528 37.2614 9.91969 37.373 9.91969 37.5095ZM20.5028 40.0726C20.5028 40.2563 20.613 40.4033 20.7508 40.4033C20.9539 40.4033 20.9988 40.688 20.9988 41.9742V43.5451H20.2547C19.7036 43.5451 19.5106 43.6094 19.5106 43.7932C19.5106 43.9805 19.3085 44.0412 18.6838 44.0412C18.0591 44.0412 17.857 43.9805 17.857 43.7932C17.857 43.6567 17.9686 43.5451 18.105 43.5451C18.2415 43.5451 18.3531 43.4016 18.3531 43.2261C18.3531 43.0509 18.4657 42.7947 18.6033 42.657C18.741 42.5194 18.8991 42.1792 18.9547 41.9011C19.0104 41.623 19.1582 41.3954 19.2832 41.3954C19.4256 41.3954 19.5106 41.2101 19.5106 40.8994C19.5106 40.5686 19.5933 40.4033 19.7586 40.4033C19.8964 40.4033 20.0067 40.2563 20.0067 40.0726C20.0067 39.8888 20.117 39.7418 20.2547 39.7418C20.3925 39.7418 20.5028 39.8888 20.5028 40.0726ZM3.636 43.5451C3.636 43.8758 3.55332 44.0412 3.38796 44.0412C3.1882 44.0412 3.13992 44.2985 3.13992 45.3641C3.13992 46.4297 3.09163 46.687 2.89188 46.687C2.70816 46.687 2.64384 46.494 2.64384 45.9428C2.64384 45.3917 2.57951 45.1987 2.3958 45.1987C2.20844 45.1987 2.14776 44.9967 2.14776 44.3719C2.14776 43.5975 2.17421 43.5451 2.56628 43.5451C2.79663 43.5451 3.0278 43.4335 3.08006 43.2971C3.25269 42.8473 3.636 43.0183 3.636 43.5451ZM20.5028 44.868C20.5028 45.0517 20.3925 45.1987 20.2547 45.1987C20.0894 45.1987 20.0067 45.3641 20.0067 45.6948C20.0067 46.0161 19.9228 46.1909 19.7687 46.1909C19.6141 46.1909 19.4924 46.4474 19.421 46.9239C19.3604 47.3271 19.2072 47.6968 19.0802 47.7454C18.953 47.7942 18.8491 48.0145 18.8491 48.2351C18.8491 48.4555 18.7375 48.6787 18.6011 48.7312C18.4561 48.7867 18.3531 49.0346 18.3531 49.3276C18.3531 49.663 18.2709 49.8288 18.105 49.8288C17.9317 49.8288 17.857 50.0034 17.857 50.4076C17.857 50.8117 17.7822 50.9863 17.6089 50.9863C17.3979 50.9863 17.3609 50.5571 17.3609 48.1144V45.2422L18.0462 45.1503C18.423 45.0998 18.7766 44.9871 18.8316 44.8998C18.9492 44.7136 19.4104 44.5834 20.048 44.5565C20.3989 44.5416 20.5028 44.6129 20.5028 44.868ZM14.7151 47.4311C14.7151 47.5675 14.6035 47.6791 14.4671 47.6791C14.3289 47.6791 14.2191 47.8263 14.2191 48.0115C14.2191 48.1942 14.0702 48.4712 13.8883 48.627C13.7064 48.7827 13.5576 48.9972 13.5576 49.1037C13.5576 49.2102 13.446 49.3402 13.3096 49.3926C13.1732 49.4448 13.0615 49.676 13.0615 49.9064C13.0615 50.1681 12.9686 50.3249 12.8135 50.3249C12.6758 50.3249 12.5655 50.4719 12.5655 50.6556C12.5655 50.8393 12.4552 50.9863 12.3174 50.9863C12.1521 50.9863 12.0694 51.1517 12.0694 51.4824C12.0694 51.8007 11.9852 51.9785 11.8344 51.9785C11.7053 51.9785 11.5505 52.2017 11.4906 52.4746C11.4083 52.8496 11.2892 52.9707 11.0031 52.9707C10.6832 52.9707 10.6102 52.8625 10.5309 52.2715C10.4793 51.8869 10.3579 51.5457 10.2612 51.5135C9.76409 51.3478 10.3094 49.8288 10.8659 49.8288C10.9821 49.8288 11.0772 49.7172 11.0772 49.5808C11.0772 49.4154 11.2426 49.3327 11.5733 49.3327C11.904 49.3327 12.0694 49.2501 12.0694 49.0847C12.0694 48.9483 12.181 48.8367 12.3174 48.8367C12.4538 48.8367 12.5655 48.725 12.5655 48.5886C12.5655 48.4509 12.7125 48.3406 12.8962 48.3406C13.0781 48.3406 13.2269 48.2349 13.2269 48.1056C13.2269 47.9765 13.4501 47.8217 13.723 47.7618C13.9958 47.702 14.2191 47.5472 14.2191 47.418C14.2191 47.2887 14.3307 47.183 14.4671 47.183C14.6035 47.183 14.7151 47.2947 14.7151 47.4311ZM20.5028 47.6791C20.5028 48.0099 20.4201 48.1752 20.2547 48.1752C20.0894 48.1752 20.0067 48.0099 20.0067 47.6791C20.0067 47.3484 20.0894 47.183 20.2547 47.183C20.4201 47.183 20.5028 47.3484 20.5028 47.6791ZM19.9637 50.1129C19.9096 51.1744 19.8005 51.9094 19.692 51.9456C19.5921 51.9788 19.5106 52.251 19.5106 52.5503C19.5106 53.3181 19.3302 54.1282 19.1592 54.1282C19.0797 54.1282 19.0145 54.0252 19.0145 53.8995C19.0145 53.7737 18.8657 53.6318 18.6838 53.5841C18.5019 53.5367 18.3531 53.3791 18.3531 53.2342C18.3531 53.0892 18.2415 52.9707 18.105 52.9707C17.9397 52.9707 17.857 52.8053 17.857 52.4746C17.857 52.1439 17.9397 51.9785 18.105 51.9785C18.2694 51.9785 18.3531 51.8141 18.3531 51.4907C18.3531 51.219 18.4683 50.9382 18.613 50.8572C18.7561 50.7772 18.9146 50.4015 18.9656 50.0223C19.0229 49.5942 19.1438 49.3327 19.2844 49.3327C19.4254 49.3327 19.5106 49.1462 19.5106 48.8367C19.5106 48.4866 19.5906 48.3406 19.7824 48.3406C20.0232 48.3406 20.0439 48.5421 19.9637 50.1129ZM20.5028 54.3762C20.5028 54.9274 20.4384 55.1203 20.2547 55.1203C20.071 55.1203 20.0067 54.9274 20.0067 54.3762C20.0067 53.8251 20.071 53.6321 20.2547 53.6321C20.4384 53.6321 20.5028 53.8251 20.5028 54.3762Z" fill="white"/>
</svg>
