<svg width="244" height="48" viewBox="0 0 244 48" fill="none" xmlns="http://www.w3.org/2000/svg">
<path fill-rule="evenodd" clip-rule="evenodd" d="M175.092 0.306706C173.913 0.538055 172.516 1.29003 171.914 2.01841C171.163 2.92514 170.683 4.59494 170.683 6.2952V7.68523H169.45H168.218V9.97407V12.2629H169.45H170.683V17.897V23.5311H173.148H175.613V17.897V12.2629H177.197H178.782V9.97407V7.68523H177.178H175.574L175.642 6.34573C175.704 5.12419 175.755 4.96732 176.223 4.56448C176.699 4.15531 176.839 4.12854 178.111 4.20214L179.486 4.28172V2.30821V0.334524L178.936 0.224484C178.183 0.0739485 176.047 0.119725 175.092 0.306706ZM6.62733 1.78002C4.17421 2.33814 2.41022 3.58063 1.53694 5.36558C1.1371 6.18269 1.0422 6.64433 0.986033 8.04229C0.901346 10.15 1.26404 11.1394 2.56833 12.3594C3.70852 13.426 4.99116 13.9817 8.59995 14.9731C11.8413 15.8634 12.5989 16.22 12.9259 17.0093C13.8062 19.1347 10.091 20.1913 7.01713 18.6896C6.21076 18.2958 5.02214 17.2607 4.43602 16.442C4.23144 16.1564 4.04111 16.2386 2.05932 17.4704C-0.46703 19.0405 -0.441324 18.8289 1.64364 20.8948C3.84321 23.0743 6.15019 23.936 9.75969 23.9261C15.4045 23.911 18.745 21.4514 18.7851 17.2808C18.8061 15.0932 18.2256 13.9327 16.438 12.5897C15.389 11.8014 14.3948 11.416 11.0126 10.4868C7.85978 9.62036 7.30271 9.35291 6.88051 8.5027C5.76795 6.26298 9.48186 5.45414 12.36 7.30933C12.8181 7.60477 13.4562 8.08807 13.7778 8.38368C14.1328 8.70975 14.4479 8.86838 14.5796 8.78722C15.2172 8.39442 18.2108 5.86085 18.2108 5.71401C18.2108 5.37684 16.1857 3.60369 15.1386 3.02409C13.4387 2.0832 11.8739 1.67455 9.67166 1.59656C8.38991 1.55113 7.36028 1.61311 6.62733 1.78002ZM26.1503 2.27159C25.6015 3.71514 18.739 23.2622 18.739 23.3819C18.739 23.464 19.917 23.5311 21.3571 23.5311H23.975L24.6639 21.5503L25.3529 19.5696H28.7657H32.1784L32.824 21.5063L33.4696 23.443L36.4041 23.4913C38.0181 23.5179 39.3386 23.5054 39.3386 23.4636C39.3386 23.4064 32.9392 5.23265 31.9072 2.35927L31.7333 1.87509H29.0171C26.3617 1.87509 26.2976 1.88389 26.1503 2.27159ZM40.571 12.7031V23.5311H43.4761H46.3812V20.1231V16.7151L49.0662 16.6145C52.8616 16.4724 54.7319 15.8846 56.2647 14.3517C57.4646 13.1519 57.8921 11.9828 57.971 9.68621C58.0742 6.67655 57.3706 4.86678 55.5897 3.56056C53.7583 2.21718 51.6327 1.87861 45.0167 1.8765L40.571 1.87509V12.7031ZM60.7044 2.06735C60.3994 2.15574 59.9123 2.49871 59.6218 2.82954C58.1238 4.53578 59.3277 7.15844 61.608 7.15633C64.2736 7.15387 65.1432 3.472 62.7619 2.27124C61.9224 1.8478 61.5794 1.81382 60.7044 2.06735ZM80.3659 11.3386C80.3682 16.3499 80.4421 20.7607 80.5302 21.1406C80.7569 22.1176 81.2163 22.672 82.2195 23.1789C82.9924 23.5694 83.3549 23.626 85.4345 23.6807C86.7236 23.7145 88.0506 23.6911 88.3835 23.6286L88.9888 23.515V21.8595V20.2038L87.6816 20.2388C86.5956 20.2679 86.291 20.2115 85.8811 19.9059C85.6098 19.7034 85.3344 19.3469 85.2691 19.1136C85.204 18.8801 85.1427 17.2038 85.133 15.3881L85.1154 12.0868H87.1402H89.1649V9.88604V7.68523H87.1402H85.1154V4.95622V2.22722H82.7385H80.3617L80.3659 11.3386ZM117.723 11.6907L117.775 21.1542L118.216 21.937C118.532 22.5002 118.901 22.846 119.531 23.1694C120.315 23.5723 120.65 23.6254 122.755 23.6807C124.047 23.7145 125.376 23.6911 125.709 23.6286L126.315 23.515V21.8695V20.224L125.022 20.2438C123.463 20.2675 122.898 19.9738 122.627 18.999C122.526 18.635 122.443 16.9309 122.442 15.212L122.441 12.0868H124.466H126.491V9.88604V7.68523H124.466H122.441V4.95622V2.22722H120.056H117.67L117.723 11.6907ZM62.9061 2.84926C63.959 3.73522 64.0371 5.14373 63.0864 6.09448C62.1252 7.05562 60.7555 6.96847 59.8466 5.88831C59.3691 5.32085 59.2578 4.26834 59.6026 3.5801C60.213 2.36173 61.8865 1.99147 62.9061 2.84926ZM60.6424 4.61871C60.6424 5.74887 60.6979 6.11174 60.8625 6.05769C60.9836 6.01807 61.1074 5.73408 61.1377 5.42685C61.2093 4.70163 61.447 4.71959 61.8983 5.48442C62.0981 5.82334 62.3795 6.10065 62.5231 6.10065C62.667 6.10065 62.7555 6.04131 62.7202 5.9686C62.6848 5.89588 62.5467 5.61893 62.4135 5.35307C62.2013 4.92981 62.2075 4.82946 62.4631 4.54687C62.8061 4.16798 62.8423 3.61725 62.5439 3.31882C62.4277 3.20262 61.9523 3.10754 61.4875 3.10754H60.6424V4.61871ZM62.0509 3.63345C62.4015 3.85688 62.0777 4.40567 61.5488 4.48437C61.2319 4.53138 61.1706 4.45303 61.1706 4.00019C61.1706 3.4301 61.5101 3.28872 62.0509 3.63345ZM50.9543 7.07921C51.9311 7.65107 52.2499 8.23367 52.2499 9.44588C52.2499 10.6581 51.9311 11.2407 50.9543 11.8125C50.4979 12.0798 49.9345 12.1712 48.3758 12.2309L46.3812 12.3073V9.44588V6.58447L48.3758 6.66088C49.9345 6.72057 50.4979 6.81195 50.9543 7.07921ZM70.4628 7.52519C68.9805 7.74016 67.8017 8.31625 66.9241 9.25449C65.9671 10.2776 65.6675 11.1086 65.6714 12.7283C65.6738 13.8142 65.7462 14.1019 66.2001 14.8365C67.0844 16.2668 68.0319 16.6881 72.4884 17.6331C74.1197 17.9789 74.7862 18.4553 74.7862 19.2754C74.7862 20.0314 74.3336 20.4707 73.2983 20.719C71.8077 21.0765 69.3071 20.4851 67.6799 19.39L66.8087 18.8039L65.842 20.1445L64.8752 21.4852L65.6745 22.0535C66.7163 22.7941 68.4051 23.4622 69.8892 23.7207C71.3665 23.9779 74.3249 23.8409 75.5475 23.4589C77.7395 22.7736 79.0912 21.1639 79.2621 19.0351C79.4859 16.2469 77.8399 14.7317 73.8191 14.0246C72.0262 13.7093 70.7165 13.3013 70.4101 12.9628C70.2343 12.7686 70.1467 12.4224 70.1816 12.0594C70.32 10.6135 72.7412 10.4649 75.3762 11.7404C76.2039 12.1409 76.9379 12.4025 77.0076 12.3217C77.0772 12.2411 77.5019 11.6391 77.9512 10.9843L78.7683 9.79378L78.0244 9.25168C77.6152 8.95342 76.9833 8.55657 76.6201 8.36959C75.1922 7.63523 72.3713 7.24841 70.4628 7.52519ZM96.7193 7.51427C94.6127 7.71023 92.351 8.59513 90.9787 9.76015L90.4157 10.2382L91.3909 11.5587C91.9272 12.2849 92.3874 12.901 92.4135 12.9279C92.4395 12.9547 92.8764 12.6969 93.3843 12.355C95.4281 10.9798 98.4409 10.6091 99.3152 11.6256C99.5642 11.9152 99.7288 12.3323 99.7288 12.6738V13.2411L97.6296 13.5454C92.2357 14.3274 89.8183 16.1612 89.8042 19.4816C89.8 20.4908 89.8859 20.9681 90.169 21.5063C91.0918 23.2619 92.9132 24.0276 95.3721 23.6936C96.8121 23.498 97.8724 23.0224 98.9161 22.1037L99.6999 21.4139L99.8024 21.9442C99.8587 22.2359 99.9508 22.7124 100.007 23.0029L100.109 23.5311H102.492H104.876L104.742 23.1349C104.669 22.9169 104.559 20.2034 104.499 17.1047L104.388 11.4706L103.878 10.3591C103.574 9.69606 103.093 9.01241 102.687 8.66485C101.52 7.66533 99.429 7.26215 96.7193 7.51427ZM115.1 7.51075C113.804 7.70019 112.627 8.32364 111.657 9.33372L110.821 10.2051V8.94515V7.68523H108.444H106.067V15.6081V23.5311H108.444H110.821V18.6379V13.7447L111.569 13.0122C112.605 11.9981 113.766 11.5178 115.16 11.5259L116.279 11.5322L116.28 10.357C116.281 9.71068 116.332 8.76591 116.393 8.25744C116.481 7.52747 116.452 7.33768 116.259 7.35511C116.125 7.36708 115.603 7.43715 115.1 7.51075ZM153.059 7.51145C151.958 7.69773 151.241 8.0974 150.138 9.14128L149.203 10.0251V8.85518V7.68523H146.826H144.449V18.6012V29.5173H146.826H149.203V25.7319C149.203 23.6499 149.251 21.9465 149.31 21.9465C149.368 21.9465 149.656 22.1484 149.949 22.3951C152.332 24.3998 156.42 24.2242 158.308 22.0359C159.654 20.4767 160.168 18.7365 160.183 15.6962C160.202 11.6372 159.093 9.18953 156.723 8.05989C155.518 7.48504 154.297 7.30229 153.059 7.51145ZM186.321 7.53416C182.083 8.06289 179.662 10.9261 179.627 15.4488C179.612 17.4581 179.868 18.6805 180.593 20.0631C181.959 22.6641 184.875 24.0726 188.377 23.823C191.718 23.5848 194.07 21.9609 195.177 19.1294C195.658 17.8996 195.836 14.8072 195.51 13.3429C194.597 9.23812 190.981 6.95262 186.321 7.53416ZM203.343 7.53645C201.299 7.81992 199.717 8.57277 198.625 9.78198C195.876 12.8242 195.904 18.6534 198.681 21.6665C201.222 24.4227 206.614 24.6374 209.506 22.0977C210.084 21.5905 211.665 19.1933 211.51 19.0595C211.472 19.0275 210.65 18.7412 209.681 18.4232C208.713 18.1054 207.822 17.8088 207.701 17.7642C207.58 17.7197 207.48 17.795 207.48 17.9317C207.48 18.0683 207.241 18.5574 206.949 19.0183C206.008 20.5022 204.199 20.9329 202.873 19.9888C200.843 18.5431 200.885 12.6378 202.935 11.3877C204.641 10.347 206.436 10.9919 207.252 12.9386C207.387 13.2619 207.593 13.4913 207.709 13.4487C207.826 13.4059 208.693 13.1151 209.637 12.8024C210.581 12.4897 211.354 12.1589 211.354 12.0673C211.354 11.5423 210.202 9.74431 209.407 9.03036C208.023 7.78559 205.69 7.21091 203.343 7.53645ZM234.646 7.53681C232.683 7.76217 231.07 8.69901 230.257 10.0868C229.634 11.1498 229.474 13.1203 229.916 14.2782C230.528 15.881 231.924 16.6695 235.387 17.3688C237.651 17.826 238.592 18.2454 238.748 18.8675C239.07 20.1508 238.199 20.8019 236.179 20.7883C234.579 20.7776 233.264 20.4066 231.89 19.5781C231.323 19.236 230.789 18.9992 230.705 19.0516C230.62 19.1041 230.178 19.6691 229.722 20.3071L228.895 21.4674L229.324 21.8204C230.06 22.4266 232.174 23.3457 233.455 23.6172C234.13 23.7601 235.356 23.8772 236.179 23.8776C240.616 23.879 243.231 21.9238 243.218 18.6139C243.213 17.3433 242.764 16.3751 241.797 15.5472C240.964 14.8342 239.774 14.4134 237.235 13.9348C234.755 13.467 234.066 13.0978 234.066 12.2356C234.066 10.6433 236.636 10.3642 239.284 11.6689C240.046 12.0441 240.716 12.3735 240.775 12.4009C240.833 12.4284 241.295 11.852 241.801 11.1197L242.721 9.78867L242.311 9.44746C241.658 8.9036 239.516 7.91429 238.556 7.71305C237.317 7.45318 235.921 7.39032 234.646 7.53681ZM128.075 14.0803C128.075 21.2508 128.121 21.5811 129.264 22.7245C130.125 23.5851 131.397 23.9508 133.166 23.8457C134.791 23.749 136.21 23.1154 137.347 21.978L138.111 21.2144V22.3727V23.5311H140.488H142.865V15.6081V7.68523H140.488H138.111L138.111 13.0992L138.11 18.5132L137.274 19.0773C136.815 19.3877 136.215 19.7244 135.943 19.8256C135.3 20.0645 134.135 20.0613 133.683 19.8196C132.909 19.4053 132.829 18.7722 132.829 13.0608V7.68523H130.452H128.075V14.0803ZM212.586 13.7508C212.586 17.4014 212.662 20.1668 212.775 20.6964C213.185 22.6085 214.565 23.6816 216.822 23.843C218.763 23.982 221.045 23.0897 222.17 21.7523C222.406 21.4718 222.644 21.2422 222.699 21.2422C222.753 21.2422 222.798 21.7572 222.798 22.3866V23.5311H225.177H227.556L227.51 15.6522L227.464 7.77326L225.133 7.72414L222.803 7.67502L222.757 13.0913L222.71 18.5074L221.698 19.2034C220.861 19.7781 220.501 19.9126 219.63 19.9756C218.336 20.0691 217.789 19.7693 217.526 18.8229C217.417 18.4317 217.342 16.0191 217.341 12.9232L217.34 7.68523H214.963H212.586V13.7508ZM30.7114 15.2078C30.7114 15.3759 30.226 15.4321 28.7747 15.4321C27.7095 15.4321 26.838 15.3634 26.838 15.2796C26.838 15.1414 28.3826 10.5401 28.7043 9.71983C28.8034 9.467 29.0835 10.1107 29.7749 12.1805C30.2901 13.7221 30.7114 15.0845 30.7114 15.2078ZM188.938 11.1965C190.382 11.852 191.032 13.5177 190.892 16.1981C190.826 17.4552 190.709 18.022 190.373 18.6968C189.014 21.4259 185.541 20.9725 184.663 17.9516C184.256 16.5513 184.382 13.6771 184.893 12.7031C185.779 11.0137 187.293 10.4498 188.938 11.1965ZM153.78 11.6911C154.793 12.1979 155.253 13.2584 155.335 15.2759C155.423 17.417 155.107 18.6231 154.238 19.465C153.139 20.5304 151.134 20.3846 149.771 19.1402L149.203 18.6211V15.8124V13.0036L149.85 12.436C150.205 12.1238 150.74 11.7622 151.038 11.6322C151.799 11.3009 153.054 11.3277 153.78 11.6911ZM99.7288 17.4449C99.7288 18.8859 99.7137 18.9402 99.2122 19.2972C98.0183 20.1473 96.1464 20.4364 95.1548 19.9237C94.5613 19.6168 94.3717 19.1456 94.5208 18.35C94.7106 17.339 95.7425 16.6837 97.8768 16.2191C99.814 15.7972 99.7288 15.7409 99.7288 17.4449ZM0.252195 39.0151V47.6519H0.868422H1.48465V40.1271V32.6021L4.51437 40.1271L7.54392 47.6519H8.09236H8.64098L11.6212 40.1757L14.6015 32.6995L14.6474 40.1757L14.6932 47.6519H15.3077H15.922V39.0248V30.3976H15.1443H14.3666L11.2957 38.1004C9.60687 42.3371 8.16965 45.8033 8.10187 45.8033C8.03426 45.8033 6.61007 42.3568 4.93693 38.1444L1.89506 30.4856L1.07354 30.4319L0.252195 30.3782V39.0151ZM50.6067 39.0248V47.6519H51.1349C51.6517 47.6519 51.6631 47.6327 51.6631 46.7676V45.883L52.5383 46.5749C53.8093 47.5796 54.7545 47.8935 56.1963 47.79C58.209 47.6456 59.4902 46.7209 60.4128 44.7469C60.871 43.7664 60.9065 43.5324 60.9065 41.4897C60.9065 39.447 60.871 39.213 60.4128 38.2325C59.452 36.1766 57.9463 35.1531 55.8887 35.157C54.5689 35.1594 53.5827 35.5387 52.4214 36.4901L51.6631 37.1116V33.7546V30.3976H51.1349H50.6067V39.0248ZM21.8879 35.3943C20.5532 35.8713 19.6751 36.7252 18.9693 38.233C18.5101 39.2135 18.4749 39.4459 18.4749 41.4897C18.4749 43.5324 18.5105 43.7664 18.9686 44.7469C19.9533 46.8538 21.421 47.8232 23.6304 47.8262C25.5031 47.8287 26.7947 47.175 27.8092 45.7112C28.2069 45.1372 28.2532 44.9671 28.0717 44.7484C27.7218 44.3268 27.4463 44.4324 26.9533 45.1773C26.3453 46.096 25.1671 46.7697 23.9479 46.8954C22.6527 47.0292 21.2617 46.3825 20.5174 45.3008C19.9472 44.4722 19.4433 42.9582 19.4433 42.0738V41.4897H23.9502H28.4571L28.331 40.3893C28.069 38.102 26.9084 36.1965 25.3414 35.4808C24.5104 35.1012 22.826 35.0591 21.8879 35.3943ZM34.2359 35.517C33.8019 35.7139 33.0295 36.1901 32.5192 36.5752L31.5917 37.2756V36.3014V35.3274H30.9755H30.3593V41.4897V47.6519H30.9755H31.5917V42.9853V38.3187L32.7802 37.4374C35.2977 35.5707 37.9114 35.6364 38.4512 37.5801C38.5544 37.952 38.6327 40.2576 38.6333 42.9422L38.6343 47.6519H39.1625H39.6907V43.0832V38.5143L40.2629 37.9726C42.4722 35.8809 45.2522 35.4674 46.3306 37.0701C46.7266 37.6583 46.7333 37.7516 46.7333 42.6601V47.6519H47.3495H47.9658V43.0829C47.9658 40.4523 47.8844 38.1346 47.774 37.6198C47.4157 35.9489 46.3423 35.1513 44.452 35.1513C43.1212 35.1513 41.9056 35.6033 40.6142 36.5783C40.0692 36.9898 39.5986 37.2528 39.5683 37.1632C39.3456 36.5035 38.6956 35.7864 38.0584 35.4971C37.0365 35.0332 35.2824 35.0423 34.2359 35.517ZM65.4113 35.6998C63.3667 36.7215 62.4911 38.4839 62.4911 41.5777C62.4911 43.378 62.5295 43.595 63.0351 44.6588C63.7535 46.1695 64.3326 46.825 65.4349 47.3741C66.6832 47.9963 68.6011 48.0134 69.8858 47.4137C70.7272 47.0211 71.8343 45.9872 72.2548 45.2018C72.4256 44.8828 72.3898 44.805 71.9884 44.622C71.5843 44.438 71.5009 44.4551 71.3394 44.755C71.2375 44.9442 70.8128 45.4311 70.3957 45.8369C67.8007 48.3615 63.839 46.3417 63.5959 42.37L63.5475 41.5777L67.9931 41.5307L72.4388 41.4837L72.4366 40.7384C72.4303 38.489 71.2366 36.3577 69.5409 35.5681C68.2143 34.9503 66.8221 34.9948 65.4113 35.6998ZM78.6306 35.4487C78.1885 35.605 77.3932 36.1627 76.7379 36.7755L75.6079 37.8326V36.5801V35.3274H75.0797H74.5515V41.4897V47.6519H75.0797H75.6079V43.6834C75.6079 40.0355 75.637 39.6581 75.9673 39.0105C76.7624 37.452 78.3058 36.3834 79.9655 36.2426C80.4738 36.1994 80.8909 36.1146 80.8923 36.0538C80.8936 35.9933 80.9425 35.7654 81.0008 35.5475C81.1006 35.1751 81.0555 35.1522 80.2502 35.1652C79.7789 35.1728 79.0502 35.3005 78.6306 35.4487ZM24.4218 36.2183C25.7566 36.5889 26.8239 38.0381 27.1184 39.8792L27.2352 40.6093H23.3392C21.1965 40.6093 19.4452 40.5498 19.4475 40.4773C19.488 39.2353 20.5312 37.315 21.4856 36.725C22.576 36.0512 23.3431 35.9188 24.4218 36.2183ZM57.7564 36.6498C60.2618 38.118 60.6711 43.5831 58.4427 45.8115C56.8649 47.3891 54.6333 47.2074 52.3545 45.3156L51.6695 44.7469L51.6663 41.4564L51.6631 38.1659L52.8035 37.3189C53.4306 36.853 54.2426 36.3745 54.6081 36.2554C55.542 35.9512 56.8424 36.1141 57.7564 36.6498ZM68.4625 36.225C68.8418 36.3303 69.3691 36.5769 69.6342 36.7731C70.2784 37.2493 70.9628 38.549 71.1676 39.685L71.3343 40.6093H67.4848H63.6355V40.2005C63.6355 38.7122 65.1859 36.612 66.5508 36.2514C67.4841 36.0049 67.6605 36.0024 68.4625 36.225Z" fill="white"/>
</svg>
