<svg width="32" height="22" viewBox="0 0 32 22" fill="none" xmlns="http://www.w3.org/2000/svg">
<path d="M6.87572 6.48328C6.61827 6.48285 6.37142 6.58474 6.18923 6.76669C6.00706 6.94842 5.90474 7.19528 5.90474 7.45274C5.90474 7.71019 6.00729 7.95705 6.18945 8.1388C7.39063 8.71469 8.64327 9.17682 9.93074 9.51887C8.91886 8.30733 7.89535 7.1016 7.56 6.76824C7.3787 6.58629 7.1325 6.48393 6.87572 6.48328Z" fill="white"/>
<path d="M8.53141 16.8618C8.28521 17.0996 7.93192 17.1898 7.60177 17.0993C7.27163 17.0089 7.01375 16.751 6.92331 16.4209C6.83288 16.0907 6.92309 15.7374 7.16086 15.4912L10.3515 12.2986H0.0914907V20.0525C0.0914907 20.5665 0.295722 21.0596 0.659185 21.4232C1.02286 21.7867 1.51593 21.9909 2.02996 21.9909H11.7223V13.6694L8.53141 16.8618Z" fill="white"/>
<path d="M4.81893 9.50945C4.0842 8.7745 3.79736 7.70363 4.06625 6.69978C4.33517 5.69615 5.11923 4.91213 6.12286 4.64318C7.1267 4.37426 8.19762 4.66114 8.93252 5.39586C9.36868 5.83201 10.6345 7.33433 11.7219 8.63698V0.668213H2.02953C1.51549 0.668213 1.02241 0.872444 0.658759 1.23591C0.295296 1.59959 0.0910645 2.09265 0.0910645 2.60668V10.3606H6.43151C5.85169 10.1656 5.30693 9.87831 4.81865 9.50967L4.81893 9.50945Z" fill="white"/>
<path d="M29.1681 0.667764H13.6604V8.63874C14.748 7.33415 16.0136 5.83378 16.4497 5.39762V5.39741C17.1884 4.68411 18.2485 4.41322 19.2386 4.68477C20.2288 4.95632 21.0025 5.72994 21.274 6.72016C21.5455 7.71039 21.2747 8.77051 20.5614 9.50906C20.0735 9.8775 19.5296 10.1648 18.9505 10.3599H31.1063V2.60607C31.1063 2.09203 30.9021 1.59895 30.5386 1.2353C30.175 0.871834 29.6819 0.667603 29.1679 0.667603L29.1681 0.667764Z" fill="white"/>
<path d="M19.1932 6.76627C19.0115 6.58454 18.7649 6.48242 18.5078 6.48242C18.251 6.48242 18.0044 6.58454 17.8227 6.76627C17.4893 7.09966 16.4658 8.30536 15.4539 9.5169C16.7504 9.17269 18.0107 8.70341 19.2164 8.11539C19.3886 7.93171 19.4825 7.68788 19.4782 7.43604C19.4738 7.18419 19.3717 6.94406 19.1932 6.76621L19.1932 6.76627Z" fill="white"/>
<path d="M18.2236 15.4895C18.4105 15.6701 18.5172 15.9183 18.5194 16.1783C18.5217 16.4382 18.4194 16.6883 18.2355 16.8719C18.0518 17.0558 17.8017 17.1581 17.5419 17.1558C17.2819 17.1536 17.0337 17.0469 16.8531 16.86L13.6604 13.6694V21.9909H29.1681C29.6822 21.9909 30.1753 21.7867 30.5389 21.4232C30.9024 21.0595 31.1066 20.5665 31.1066 20.0525V12.2986H15.0312L18.2236 15.4895ZM20.445 16.1757H26.2604C26.6068 16.1757 26.9268 16.3605 27.0999 16.6603C27.2729 16.9602 27.2729 17.3297 27.0999 17.6296C26.9268 17.9294 26.6068 18.1142 26.2604 18.1142H20.445C20.0987 18.1142 19.7787 17.9294 19.6056 17.6296C19.4326 17.3297 19.4326 16.9602 19.6056 16.6603C19.7787 16.3605 20.0987 16.1757 20.445 16.1757Z" fill="white"/>
</svg>
