<svg width="47" height="36" viewBox="0 0 47 36" fill="none" xmlns="http://www.w3.org/2000/svg">
<path d="M44.1195 12.3126L45.3865 11.7131C46.1102 11.3489 46.5645 10.6056 46.5592 9.79592V9.0251C46.555 7.94678 45.6863 7.0709 44.6079 7.05653H40.5674L38.71 2.77672C38.4694 2.21787 38.0705 1.742 37.5624 1.40764C37.0543 1.07268 36.4596 0.894151 35.8513 0.893555H11.0115C10.4031 0.894152 9.80843 1.07268 9.30037 1.40764C8.79226 1.742 8.39342 2.21787 8.1528 2.77672L6.32929 7.05653H2.28884C1.21053 7.07086 0.341833 7.94677 0.337553 9.0251V9.79592C0.338747 10.6133 0.807446 11.3585 1.54423 11.7131L2.81122 12.3126C1.9592 12.8004 1.25108 13.5043 0.757829 14.3534C0.265237 15.2025 0.00491868 16.1667 0.00372644 17.1483V20.6663C0.00253222 21.9942 0.325554 23.3018 0.945316 24.4757V32.4705C0.945316 33.2784 1.26595 34.0533 1.83734 34.6254C2.40933 35.1968 3.18433 35.5174 3.99222 35.5174H4.31006C5.11791 35.5174 5.89344 35.1968 6.46495 34.6254C7.03635 34.0534 7.35756 33.2784 7.35756 32.4705V28.8923H39.5744V32.4705C39.5744 33.2784 39.8956 34.0533 40.467 34.6254C41.0384 35.1968 41.8134 35.5174 42.6212 35.5174H42.9391C43.7475 35.5174 44.5225 35.1968 45.094 34.6254C45.6654 34.0534 45.9866 33.2784 45.9866 32.4705V24.4757C46.6058 23.3018 46.9288 21.9943 46.9282 20.6663V17.1483C46.927 16.1667 46.6667 15.2025 46.1735 14.3534C45.6809 13.5044 44.9716 12.8005 44.1195 12.3126ZM39.7113 22.5154C38.8462 22.5177 38.015 22.1756 37.4019 21.5654C36.7887 20.9546 36.4436 20.1253 36.4418 19.2601C36.4406 18.3944 36.7828 17.5638 37.3942 16.9513C38.005 16.3387 38.8349 15.9936 39.7001 15.993C40.5658 15.9924 41.3958 16.3357 42.0084 16.9472C42.6204 17.5591 42.9643 18.3891 42.9643 19.2543C42.9619 20.117 42.6192 20.944 42.0096 21.5548C41.4006 22.1656 40.5741 22.5106 39.7113 22.5154ZM23.448 22.344H14.5289V19.5282H32.3666V22.3446L23.448 22.344ZM3.89845 19.2541C3.89845 18.3908 4.24057 17.5627 4.85019 16.9513C5.4604 16.3399 6.28733 15.9954 7.15074 15.993C8.0141 15.9906 8.84341 16.3309 9.45664 16.9393C10.0692 17.5472 10.4161 18.3735 10.4209 19.2375C10.4251 20.1008 10.0872 20.9307 9.48054 21.5452C8.87392 22.1596 8.04875 22.5089 7.18533 22.5154C6.31599 22.522 5.47952 22.1817 4.86277 21.5697C4.24539 20.9571 3.89845 20.1234 3.89845 19.2541ZM9.67635 3.38519C9.91339 2.86095 10.4364 2.5254 11.0114 2.52898H35.8848C36.4597 2.5254 36.9834 2.86095 37.2204 3.38519L39.2917 8.19585L40.7468 11.568H6.14905L7.60411 8.19585L9.67635 3.38519Z" fill="white"/>
</svg>
