<svg width="48" height="52" viewBox="0 0 48 52" fill="none" xmlns="http://www.w3.org/2000/svg">
<path d="M4.99646 36.745L4.92629 27.1079L8.1624 7.7631H40.6616L44.0381 27.2486V36.7454H47.9772V2.06544C47.9772 1.1508 47.2736 0.447634 46.3594 0.447634L2.60505 0.447144C1.69041 0.447144 0.987244 1.15079 0.987244 2.06495V36.7449L4.99646 36.745Z" fill="white"/>
<path fill-rule="evenodd" clip-rule="evenodd" d="M41.5052 39.7699H42.6308L42.6311 39.7698C43.1939 39.7698 43.686 40.1918 43.6856 40.7541V43.8494C43.6856 44.4117 43.1934 44.9044 42.6306 44.9044H41.7867V50.5326C41.7867 51.0954 41.3647 51.5174 40.8019 51.5174H36.792C36.2291 51.5174 35.8072 51.0954 35.8072 50.5326V44.9044H13.1566V50.5326C13.1566 51.0954 12.7346 51.5174 12.1718 51.5174H8.16191C7.5991 51.5174 7.17711 51.0954 7.17711 50.5326V44.9044H6.40308C5.84077 44.9044 5.34811 44.4122 5.34811 43.8494V40.7541C5.34811 40.1918 5.84026 39.6992 6.40308 39.6992H7.52871V27.248L10.3422 11.4908C10.4831 10.7175 11.1161 10.2249 11.8197 10.2249H37.2142C37.9178 10.2249 38.5508 10.7872 38.6916 11.4908L41.5052 27.248V39.7699ZM12.6639 31.0469C11.7497 31.1873 10.9759 31.9611 10.835 32.8757C10.5539 34.494 11.9607 35.9008 13.5785 35.6192C14.4927 35.4787 15.2665 34.705 15.4073 33.7903C15.6884 32.1725 14.2817 30.7657 12.6639 31.0469ZM29.6169 34.1422H19.2763C18.9249 34.1422 18.6433 34.4233 18.6433 34.705C18.6433 34.9866 18.9244 35.2678 19.2763 35.2678H29.6169C29.9687 35.2678 30.2499 34.9862 30.2499 34.705C30.2499 34.4233 29.9687 34.1422 29.6169 34.1422ZM19.2763 31.3281C18.9244 31.3281 18.6433 31.6097 18.6433 31.8909C18.6433 32.2427 18.9249 32.4537 19.2763 32.4537H29.6169C29.9687 32.4537 30.2499 32.1721 30.2499 31.8909C30.2499 31.6092 29.9687 31.3281 29.6169 31.3281H19.2763ZM34.8224 31.0469C33.9082 31.1873 33.1344 31.9611 32.9936 32.8757C32.6417 34.494 34.0486 35.9008 35.737 35.6191C36.6512 35.4787 37.425 34.7049 37.5659 33.7903C37.847 32.1725 36.4402 30.7657 34.8224 31.0469ZM12.875 11.8427C12.453 11.8427 12.1714 12.1239 12.1012 12.4757L9.92046 26.0523H39.1135L36.9329 12.4757C36.8628 12.1239 36.5109 11.8427 36.1591 11.8427H12.875Z" fill="white"/>
</svg>
