<svg width="40" height="11" viewBox="0 0 40 11" fill="none" xmlns="http://www.w3.org/2000/svg">
<path d="M30.2181 10.5845H28.1528L31.0252 0.210558H33.0907L30.2181 10.5845Z" fill="white"/>
<path d="M29.1458 0.538493C29.0026 0.341093 28.7817 0.241482 28.4817 0.241482H17.1244L16.5618 2.27333H18.6284V2.27215H26.8938L26.2925 4.44345H18.0269L18.0276 4.43895H15.9619L14.2474 10.6284H16.3142L17.4648 6.47411H26.756C27.0461 6.47411 27.3193 6.37515 27.5761 6.17721C27.8324 5.97906 28.0011 5.73475 28.082 5.44298L29.2324 1.28782C29.3164 0.986314 29.2874 0.736109 29.1458 0.538493Z" fill="white"/>
<path d="M13.044 9.93698C12.9299 10.3477 12.5559 10.6319 12.1295 10.6319H1.47318C1.18281 10.6319 0.966991 10.5329 0.825072 10.3352C0.683261 10.1373 0.652842 9.89242 0.733923 9.60077L3.33408 0.240891H5.40138L3.07895 8.60069H11.3484L13.6708 0.240891H15.7377L13.044 9.93698Z" fill="white"/>
<path d="M36.6579 0.229988L39.2728 5.43042L33.7758 10.6295L36.6579 0.229988Z" fill="#D4D4D4"/>
<path d="M34.8249 0.229988L37.4379 5.43042L31.9386 10.6295L34.8249 0.229988Z" fill="white"/>
</svg>
