<svg width="126" height="30" viewBox="0 0 126 30" fill="none" xmlns="http://www.w3.org/2000/svg">
<path fill-rule="evenodd" clip-rule="evenodd" d="M15.8292 20.7079C15.715 22.5728 13.9652 23.1938 13.3433 23.1938H6.73308V17.8256H13.2319C13.5688 17.8256 15.8292 18.3352 15.8292 20.7079ZM23.3435 21.3298C23.3435 15.5653 18.9361 14.7187 18.9361 14.7187C18.9361 14.7187 22.1005 13.1936 22.1005 9.35147C22.1005 3.07918 16.7324 1.21522 14.5853 1.21522H0.0078125V28.9008H15.6027C18.4849 28.9008 23.3435 25.9628 23.3435 21.3298ZM14.8684 9.57705C14.8684 11.3278 13.2309 12.2328 12.609 12.2328H6.73216V6.9779H12.0994C12.7213 6.9779 14.8684 7.59983 14.8684 9.57705ZM44.4189 15.0575C44.4189 19.0704 42.1585 22.9682 38.3164 22.9682C34.4177 22.9682 32.1574 19.0695 32.1574 15.0575C32.1574 11.2154 34.4177 7.37334 38.3164 7.48659C42.1594 7.48659 44.4189 11.3278 44.4189 15.0575ZM51.2565 15.0575C51.2565 7.37334 46.0582 0.876396 38.3173 0.876396C30.4633 0.876396 25.2084 7.37426 25.2084 15.0575C25.3216 22.9682 30.4624 29.6917 38.3173 29.6917C46.0572 29.6917 51.3679 22.9682 51.2565 15.0575ZM74.9857 20.5946C74.9857 9.35056 59.7306 14.0968 60.6347 8.84187C60.9745 6.86466 63.0083 6.58155 64.7599 6.58155C67.7527 6.58155 69.845 8.95512 69.845 8.95512L73.9693 4.60433C70.8624 1.72299 68.602 0.480042 64.2513 0.480042C58.6575 0.480042 53.5149 3.9824 53.5149 9.68938C53.5149 17.7133 62.3864 17.7133 65.4951 18.6731C67.3591 19.1818 67.8678 19.6905 67.7536 20.9335C67.7536 22.2906 65.6075 23.5892 64.138 23.5892C60.9745 23.8148 59.1096 22.1764 56.9068 19.9727L52.6693 24.55C56.5114 28.2788 59.9014 29.6917 64.1389 29.5784C69.6185 29.4095 74.9857 26.3007 74.9857 20.5946ZM100.921 23.0824L95.3278 19.5782C95.3278 19.5782 93.0674 22.9682 90.4674 22.9682C86.3431 23.0824 84.0837 18.9562 84.0837 14.9452C84.0837 10.9899 86.1741 7.48659 90.0738 7.48659C92.3341 7.48659 93.9159 8.84278 94.9323 10.7077L100.3 7.2053C99.3954 5.85002 97.305 0.989639 90.4674 0.764063C83.0663 0.59511 77.1894 7.4875 77.1894 14.9461C77.1894 22.9691 81.9357 29.2971 90.6939 29.2971C95.1579 29.4095 98.6612 26.5847 100.921 23.0824ZM125.726 28.9008V1.21431H118.775V11.61H110.301V1.21431H103.182V28.8998H110.131V17.8256H118.775V28.9008H125.726Z" fill="#999999"/>
</svg>
