<svg width="138" height="43" viewBox="0 0 138 43" fill="none" xmlns="http://www.w3.org/2000/svg">
<path fill-rule="evenodd" clip-rule="evenodd" d="M20.3074 0.161083C14.2958 1.24687 8.48054 4.53616 5.1126 8.75558C-2.44782 18.2274 -0.197845 31.271 10.1989 38.2403C20.1781 44.93 34.2963 43.5952 42.5669 35.1799C48.1875 29.4612 49.904 22.0249 47.3042 14.6574C45.3176 9.02689 40.0646 3.90095 33.9314 1.60781C30.5715 0.351352 28.2805 -0.0337456 24.4085 0.0073135C22.5099 0.0274405 20.6645 0.0966769 20.3074 0.161083ZM27.1173 8.94907L27.1893 12.8282L28.4877 11.9373C30.2627 10.7192 31.5355 10.3311 33.7229 10.3413C36.0365 10.3521 37.9218 11.2205 39.5197 13.0118C40.6421 14.2701 41.7297 16.3958 42.0211 17.9008C42.1834 18.7394 42.1678 18.756 41.2215 18.756C40.4995 18.756 39.9968 18.5263 39.226 17.8447C38.2745 17.0028 36.6039 16.3408 35.4316 16.3408C33.2661 16.3408 30.6354 18.2067 28.2117 21.4616C26.5925 23.6362 26.6515 24.171 28.6241 25.2002C30.7569 26.3128 33.1097 26.9053 34.5773 26.6995C36.6641 26.4067 38.2472 25.7117 39.2961 24.6278C40.1321 23.7639 40.4814 23.5865 41.3474 23.5865C42.3511 23.5865 42.3852 23.6147 42.2332 24.3245C41.3118 28.6328 39.1663 31.2305 35.9617 31.918C32.7846 32.5997 30.3752 31.436 27.6004 27.8803L27.0768 27.2094L27.068 31.5149L27.0594 35.8205L24.7871 36.5829C23.5375 37.0024 22.3689 37.4025 22.1902 37.4723C21.9401 37.5697 21.8656 36.7391 21.8656 33.8577C21.8656 31.7999 21.7978 30.0467 21.7152 29.9611C21.6324 29.8755 21.0774 30.1412 20.4817 30.5515C18.9526 31.6046 17.6614 31.9725 15.5662 31.9521C14.1634 31.9384 13.4349 31.7763 12.3811 31.2436C7.52358 28.7876 5.42449 20.9496 8.0666 15.1332C9.04018 12.9898 9.97351 11.9 11.5766 11.0342C12.6728 10.4422 13.2482 10.3161 14.8539 10.315C17.0805 10.3137 18.6303 10.9052 20.4604 12.4547C21.067 12.9686 21.6314 13.3888 21.7145 13.3888C21.7976 13.3888 21.8656 11.9048 21.8656 10.0909V6.7928L24.2677 5.95498C25.5891 5.49394 26.7543 5.10616 26.8577 5.09327C26.961 5.08039 27.0779 6.81534 27.1173 8.94907ZM95.0987 11.1467C94.1703 11.5001 92.914 11.9781 92.3071 12.2088L91.2034 12.628V14.4845V16.3408H89.6343H88.0652L88.1411 18.4206L88.2169 20.5004L89.7101 20.5809L91.2034 20.6614V24.6245C91.2034 29.3801 91.5485 30.9197 92.887 32.1341C93.3814 32.5828 94.2275 33.0765 94.7671 33.2314C95.8558 33.5437 98.997 33.6092 100.271 33.346L101.093 33.1761L101.017 31.2662L100.942 29.3563L99.6008 29.4464C98.514 29.5194 98.1566 29.4301 97.718 28.9768C97.2189 28.461 97.1763 28.1121 97.1763 24.5376V20.6582L99.0591 20.5793L100.942 20.5004L101.018 18.4206L101.093 16.3408H99.1349H97.1763V13.5388C97.1763 11.9976 97.0888 10.6846 96.9815 10.6204C96.8743 10.5563 96.0272 10.793 95.0987 11.1467ZM123.145 11.4974L120.419 12.4984L120.351 22.8729L120.283 33.2475H123.136H125.988L126.06 29.2892L126.132 25.3309L128.212 29.2221L130.292 33.1133L133.761 33.1884C136.496 33.2475 137.203 33.1909 137.102 32.9201C137.032 32.7312 135.682 30.6602 134.101 28.3182L131.228 24.0599L133.939 20.3439C135.43 18.3004 136.649 16.5635 136.649 16.4844C136.649 16.4055 135.267 16.3408 133.577 16.3408H130.503L128.258 19.738L126.012 23.1351L125.942 16.8158L125.872 10.4967L123.145 11.4974ZM57.3136 11.5948L54.9763 12.4496L54.9083 22.8485L54.8405 33.2475H57.8298H60.8194L60.8223 29.2892L60.8251 25.3309L62.945 29.2892L65.0646 33.2475H68.5255C70.4288 33.2475 71.982 33.157 71.9771 33.0462C71.9721 32.9354 70.6407 30.8612 69.0184 28.4366L66.0686 24.0285L68.7901 20.2975C70.287 18.2453 71.4553 16.5077 71.386 16.4363C71.3169 16.3649 69.9876 16.2369 68.4317 16.1521C66.122 16.0263 65.5333 16.0716 65.2238 16.399C65.0152 16.6196 63.9682 18.1409 62.8969 19.7793L60.9492 22.7586L60.8794 16.7318L60.8095 10.7052L60.2302 10.7227C59.9115 10.7323 58.599 11.1247 57.3136 11.5948ZM12.5086 16.2163C10.9806 16.7031 9.26092 18.237 8.86956 19.4626C8.12892 21.7815 9.10406 24.3159 11.1388 25.3601C12.4697 26.0434 15.4102 26.0431 16.6476 25.3596C17.8074 24.719 19.8457 22.735 20.9694 21.1536C21.6807 20.152 21.8656 19.64 21.8656 18.6723V17.4529L20.4217 16.8944C17.4249 15.7359 14.7394 15.5057 12.5086 16.2163ZM77.0096 16.0665C74.9911 16.5109 73.336 17.4403 72.0389 18.8577C70.3392 20.7148 69.8068 22.3657 69.9632 25.2952C70.1556 28.899 71.6257 31.1304 74.8308 32.6834C76.1202 33.3081 76.584 33.3811 79.2575 33.3814C81.9877 33.3817 82.3803 33.3164 83.8325 32.623C87.6957 30.778 89.5538 26.7754 88.507 22.5533C87.7653 19.5622 86.1557 17.7636 83.1721 16.592C81.6161 15.9809 78.5758 15.7219 77.0096 16.0665ZM106.915 15.9726C106.629 16.0461 105.782 16.2831 105.032 16.4994L103.669 16.8925V19.0279V21.1635L105.032 20.5924C106.022 20.1778 107.002 20.0136 108.613 19.9926C111.148 19.9596 111.997 20.3375 112.458 21.7058L112.739 22.5375L111.241 22.3622C109.243 22.1288 106.195 22.6371 104.499 23.4864C102.762 24.357 101.873 25.6736 101.673 27.6712C101.325 31.161 103.869 33.6127 107.824 33.5985C109.604 33.5921 111.014 32.9888 112.144 31.7506L113.018 30.7941V32.0208V33.2475L115.679 33.2477L118.341 33.248L118.268 27.8135C118.228 24.8245 118.077 21.7619 117.933 21.0076C117.566 19.0909 116.425 17.6015 114.627 16.6905C113.309 16.0222 112.836 15.935 110.291 15.8897C108.72 15.8618 107.2 15.8991 106.915 15.9726ZM81.2096 20.747C83.3222 22.1774 83.2373 27.4571 81.0808 28.7734C80.0202 29.4209 78.1944 29.3565 77.3135 28.6403C75.1521 26.8833 75.4557 21.5609 77.7791 20.4776C78.7574 20.0213 80.3192 20.144 81.2096 20.747ZM112.485 26.7397C112.182 28.1323 110.722 29.4904 109.528 29.4904C107.708 29.4904 106.811 28.6124 107.16 27.1731C107.387 26.2395 108.633 25.7565 110.848 25.7439L112.703 25.7334L112.485 26.7397Z" fill="#999999"/>
</svg>
