<svg width="147" height="36" viewBox="0 0 147 36" fill="none" xmlns="http://www.w3.org/2000/svg">
<path fill-rule="evenodd" clip-rule="evenodd" d="M4.07752 1.06531C3.73473 1.20162 2.8748 1.94969 2.16613 2.72765L0.878279 4.14274L0.864694 11.5012L0.851562 18.8597H3.34212H5.83269V12.0455V5.2318L8.66287 5.36629L11.4931 5.50123L11.6185 12.2036L11.7439 18.9063L14.109 18.7696L16.4742 18.6333L16.5996 11.9319L16.725 5.23044L19.3166 5.36583L21.9081 5.50123L22.0336 12.1805L22.1585 18.8597H24.6373H27.1157V11.1987C27.1157 6.98515 26.9889 3.20765 26.8345 2.80463C26.1525 1.02818 24.4041 0.745163 14.3459 0.782295C9.04098 0.801767 4.42031 0.929465 4.07752 1.06531ZM50.21 9.80311V18.9072L52.5873 18.77L54.9647 18.6333L55.038 14.105L55.1114 9.5767H58.4343H61.7571L61.8862 14.2182L62.0152 18.8597H64.4899H66.9647V13.1993C66.9647 5.85942 66.861 5.72765 61.0883 5.72765C57.2519 5.72765 56.9816 5.79149 56.2815 6.85972C55.8735 7.48236 55.3731 7.99179 55.1694 7.99179C54.9656 7.99179 54.8361 6.41278 54.8818 4.48236L54.9647 0.972936L52.5873 0.836182L50.21 0.698975V9.80311ZM69.9837 1.04856C69.4425 1.58924 69.64 7.08613 70.2001 7.08613C70.4854 7.08613 71.6057 6.52598 72.6898 5.84085C74.5115 4.69021 74.6614 4.44931 74.6618 2.67105L74.6628 0.746521H72.4742C71.2702 0.746521 70.1494 0.88237 69.9837 1.04856ZM109.531 3.21354V5.72765H104.13C98.8339 5.72765 98.7103 5.75074 97.7901 6.92085C96.9877 7.94062 96.8514 8.74847 96.8514 12.4802C96.8514 19.1142 96.471 18.8597 106.396 18.8597H114.531L114.408 9.91632L114.285 0.972936L111.908 0.836182L109.531 0.698975V3.21354ZM31.4406 7.24191C30.8053 8.07511 30.2855 8.88432 30.2855 9.04009C30.2855 9.19632 32.9857 9.38107 36.2855 9.45036L42.2855 9.5767V12.5201V15.4635L38.3232 15.5943C34.5951 15.7175 34.3609 15.6709 34.3609 14.8019C34.3609 13.9605 34.6426 13.8786 37.5307 13.8786H40.7006V12.5685C40.7006 10.9003 40.1608 10.7088 35.4559 10.7088C30.5576 10.7088 29.8326 11.2857 29.8326 15.1818C29.8326 16.8931 30.0559 18.0283 30.458 18.362C30.8895 18.7202 33.5907 18.8425 39.175 18.7574L47.2666 18.6333V13.1323C47.2666 5.51799 47.4984 5.72765 39.0686 5.72765H32.5958L31.4406 7.24191ZM77.8326 12.2937V18.8597H80.3231H82.8137V14.0842V9.30907L85.8703 9.44266L88.9269 9.5767L89.0559 14.2182L89.185 18.8597H91.6597H94.1344V13.1993C94.1344 5.42153 94.5057 5.72765 85.0778 5.72765H77.8326V12.2937ZM117.94 6.43904C117.367 7.01277 117.229 8.28704 117.229 13.0051V18.8597H119.703H122.178L122.307 14.2182L122.436 9.5767L125.034 9.44085C127.368 9.31904 127.747 9.15375 128.77 7.81338C129.396 6.99285 129.908 6.18772 129.908 6.0247C129.908 5.86123 127.375 5.72765 124.28 5.72765C119.767 5.72765 118.511 5.86847 117.94 6.43904ZM131.063 7.24191C130.428 8.07511 129.908 8.88432 129.908 9.04009C129.908 9.19632 132.608 9.38107 135.908 9.45036L141.908 9.5767V12.5201V15.4635H138.065C134.765 15.4635 134.201 15.3516 134.069 14.671C133.936 13.9768 134.313 13.8786 137.12 13.8786H140.323V12.5685C140.323 10.9057 139.778 10.7088 135.179 10.7088C130.097 10.7088 129.455 11.1883 129.455 14.9808C129.455 16.8627 129.669 18.0211 130.08 18.362C130.512 18.7202 133.213 18.8425 138.797 18.7574L146.889 18.6333V13.1323C146.889 5.51799 147.121 5.72765 138.691 5.72765H132.218L131.063 7.24191ZM72.1722 7.40764C71.176 8.05338 70.211 8.80553 70.028 9.07904C69.8451 9.353 69.6925 11.6651 69.6884 14.2182L69.6816 18.8597H72.1722H74.6628V12.5201C74.6628 9.0333 74.5097 6.19225 74.3231 6.20719C74.1366 6.22168 73.1684 6.76191 72.1722 7.40764ZM109.531 10.9533V15.2737L105.795 15.142L102.059 15.0106L101.914 13.2424C101.835 12.2701 101.89 10.9963 102.036 10.4122C102.273 9.46892 102.567 9.34938 104.671 9.34349C107.312 9.33579 107.797 9.12523 108.573 7.65217C108.868 7.09202 109.205 6.6333 109.32 6.6333C109.436 6.6333 109.531 8.5773 109.531 10.9533ZM58.3609 28.5955V35.1616H62.6628C66.9497 35.1616 66.9647 35.1575 66.9647 34.0295C66.9647 32.9382 66.8591 32.8974 64.0213 32.8974H61.0779V27.4635V22.0295H59.7194H58.3609V28.5955ZM68.5437 22.9415C67.8853 23.6697 67.7109 24.6527 67.681 27.8094C67.6353 32.671 67.9699 33.9498 69.4656 34.6313C71.0872 35.3699 75.3574 35.2938 76.8943 34.4991C78.5874 33.6233 78.7382 33.108 78.7382 28.1848C78.7382 24.3946 78.6391 23.9056 77.6904 23.014C76.7938 22.1721 76.1159 22.0295 73.0059 22.0295C69.9357 22.0295 69.2406 22.1717 68.5437 22.9415ZM81.0354 23.2227C80.2393 24.2343 80.0967 25.0526 80.0967 28.6064C80.0967 34.3533 80.5201 34.8654 85.46 35.0896C88.8707 35.2444 89.1741 35.1819 90.2591 34.097C91.2232 33.1329 91.4174 32.5175 91.4174 30.4272V27.9163H88.4741C85.6362 27.9163 85.5307 27.957 85.5307 29.0484C85.5307 30.0441 85.7249 30.1804 87.1455 30.1804C88.6402 30.1804 88.7498 30.2733 88.6171 31.4257C88.4786 32.6298 88.3844 32.671 85.7571 32.671H83.0401V28.5955V24.5201L85.6162 24.3851C87.8274 24.2692 88.2626 24.3815 88.6887 25.1776C88.983 25.7273 89.6401 26.105 90.3012 26.105C91.1901 26.105 91.4174 25.874 91.4174 24.9729C91.4174 22.7586 90.0241 22.0295 85.7901 22.0295C82.2064 22.0295 81.9166 22.1024 81.0354 23.2227ZM93.2288 28.6254V35.2218L94.474 35.0782L95.7193 34.9351L95.8448 28.4823L95.9706 22.0295H94.5995H93.2288V28.6254ZM98.8045 22.3854C97.283 23.3527 97.119 27.2651 98.5486 28.4724C98.924 28.7889 100.581 29.2544 102.23 29.5062C105.156 29.9527 105.229 29.9966 105.229 31.3175C105.229 32.6561 105.202 32.671 102.738 32.671C100.481 32.671 100.234 32.5727 100.1 31.6254C99.9805 30.7868 99.7115 30.6075 98.7411 30.7198C97.066 30.9136 96.8922 32.5265 98.3856 34.02C99.3913 35.0257 99.9098 35.1616 102.738 35.1616C105.543 35.1616 106.09 35.0212 107.06 34.0499C107.856 33.2542 108.172 32.4423 108.172 31.1934C108.172 28.5362 107.453 27.9077 103.913 27.4689C100.566 27.0536 99.8482 26.6579 100.097 25.3641C100.402 23.7824 104.736 23.6796 105.145 25.2441C105.294 25.8111 105.772 26.105 106.545 26.105C107.534 26.105 107.719 25.9012 107.719 24.8167C107.719 22.6906 106.525 22.0286 102.702 22.0363C100.854 22.0404 99.1002 22.1971 98.8045 22.3854ZM108.625 23.1616C108.625 24.1804 108.806 24.2937 110.436 24.2937H112.248V29.7276V35.1616H113.606H114.965V29.7534V24.3457L116.889 24.2063C118.489 24.0908 118.838 23.8952 118.959 23.0484C119.101 22.0422 119.038 22.0295 113.864 22.0295H108.625V23.1616ZM119.946 28.6254V35.2218L121.191 35.0782L122.436 34.9351L122.562 28.4823L122.688 22.0295H121.316H119.946V28.6254ZM125.448 22.9664C123.385 25.1798 123.556 32.8906 125.702 34.5185C126.207 34.9016 127.755 35.138 129.815 35.1471C132.752 35.1597 133.245 35.0348 134.26 34.0209C135.831 32.4491 135.626 30.4657 133.87 30.2638C132.905 30.1524 132.625 30.3104 132.625 30.9656C132.625 32.3047 131.691 32.8974 129.58 32.8974C127.894 32.8974 127.56 32.7357 127.18 31.7359C126.598 30.2067 126.615 26.2761 127.207 25.1694C127.571 24.4884 128.164 24.2937 129.875 24.2937C131.857 24.2937 132.103 24.4078 132.365 25.4543C132.601 26.3957 132.888 26.5881 133.886 26.4731C134.932 26.3527 135.101 26.1367 135.023 25.0313C134.852 22.6367 133.806 22.0295 129.855 22.0295C126.864 22.0295 126.186 22.1735 125.448 22.9664ZM137.787 22.3759C136.963 22.9266 136.248 24.6057 136.248 25.99C136.248 28.1355 137.62 29.1557 140.991 29.5166C144.235 29.8639 144.621 30.137 144.206 31.7912C143.958 32.7801 143.688 32.8974 141.662 32.8974C139.661 32.8974 139.344 32.7647 138.965 31.7653C138.345 30.1352 136.248 30.151 136.248 31.7857C136.248 32.4197 136.748 33.4385 137.359 34.0499C138.322 35.013 138.883 35.1616 141.56 35.1616C145.117 35.1616 146.44 34.4873 146.889 32.4455C147.306 30.5486 146.401 28.0734 145.171 27.7438C144.622 27.5966 143.395 27.473 142.444 27.4698C140.254 27.4616 138.965 26.7783 138.965 25.625C138.965 23.7924 143.627 23.4795 144.098 25.2804C144.263 25.9116 144.642 26.1326 145.38 26.0275C146.689 25.8414 146.962 24.5916 146.011 23.1394C145.342 22.1187 145.002 22.03 141.784 22.0363C139.86 22.0404 138.061 22.193 137.787 22.3759ZM75.928 28.0725C76.0869 32.3196 75.7378 32.8974 73.0113 32.8974C71.2878 32.8974 70.9577 32.7398 70.576 31.7359C69.9896 30.1931 70.0131 26.2725 70.6154 25.1468C71.017 24.3964 71.4839 24.2706 73.4455 24.3842L75.7948 24.5201L75.928 28.0725Z" fill="#999999"/>
</svg>
