<svg width="165" height="41" viewBox="0 0 165 41" fill="none" xmlns="http://www.w3.org/2000/svg">
<path d="M70.2808 19.7809L64.1802 13.657H62.8076V26.6703H66.1629V20.5464L72.2635 26.6703H73.7887V13.657H70.2808V19.7809Z" fill="white"/>
<path d="M83.8534 21.465C83.8534 22.3836 83.0908 23.149 82.1758 23.149C81.2607 23.149 80.4981 22.3836 80.4981 21.465V13.657H76.9902V21.6181C76.9902 24.5269 79.278 26.8234 82.1758 26.8234C85.0735 26.8234 87.3613 24.5269 87.3613 21.6181V13.657H83.8534V21.465Z" fill="white"/>
<path d="M97.4315 18.4035L92.0935 13.6575H90.5684V26.6708H93.9237V19.9345L97.4315 23.1495L100.787 19.9345V26.6708H104.295V13.6575H102.617L97.4315 18.4035Z" fill="white"/>
<path fill-rule="evenodd" clip-rule="evenodd" d="M106.428 26.6703L112.528 13.657H113.901L120.002 26.6703H116.646L115.884 24.9862H110.546L109.783 26.6703H106.428ZM113.443 19.1708L112.07 22.0796H114.816L113.443 19.1708Z" fill="white"/>
<path fill-rule="evenodd" clip-rule="evenodd" d="M122.443 13.6575H127.171C130.832 13.6575 133.729 16.5663 133.882 20.0876C133.882 23.7619 130.984 26.6708 127.324 26.6708H122.443V13.6575ZM125.951 23.305H127.324C129.001 23.305 130.374 21.9271 130.374 20.243C130.374 18.5589 129.001 17.1811 127.324 17.1811H125.951V23.305Z" fill="white"/>
<path d="M136.626 13.6575H139.981V26.6708H136.626V13.6575Z" fill="white"/>
<path d="M151.42 22.386C150.81 22.9984 150.047 23.3046 149.285 23.3046C147.455 23.3046 146.234 22.0798 146.234 20.2426C146.234 18.4054 147.455 17.1807 149.285 17.1807C150.2 17.1807 150.962 17.4868 151.42 18.0992L153.86 15.6497C152.64 14.4249 151.115 13.8125 149.285 13.8125C145.624 13.8125 142.727 16.7214 142.727 20.3957C142.727 24.07 145.624 26.9789 149.285 26.9789C151.115 26.9789 152.793 26.2134 153.86 24.9886L151.42 22.386Z" fill="white"/>
<path d="M10.7025 28.7395H14.5678C14.8479 28.7395 14.96 28.6279 15.072 28.4048L21.2341 17.8073C21.2901 17.6958 21.4021 17.5284 21.2341 17.3053L19.3294 14.0145C19.2174 13.6799 18.7132 13.5683 18.4331 14.0145L10.2544 28.0702C10.0863 28.3491 10.2544 28.7395 10.7025 28.7395Z" fill="white"/>
<path d="M24.8201 21.0979C24.9882 21.3768 25.4363 21.4325 25.6604 21.0979L27.621 17.6955C27.7331 17.5282 27.7331 17.3609 27.621 17.1935L24.652 12.1737C24.54 11.9506 24.3719 11.8948 24.2039 11.8948H20.3946C20.0025 11.8948 19.6663 12.1737 19.8344 12.6756L24.8201 21.0979Z" fill="white"/>
<path d="M28.0133 15.6319C28.2374 15.9108 28.6855 15.9108 28.8536 15.6319L30.6462 12.5084C30.7022 12.4527 30.7582 11.8949 30.198 11.8391H26.6688C26.3888 11.8391 25.9966 12.118 26.2207 12.5642L28.0133 15.6319Z" fill="white"/>
<path d="M25.6016 24.8912C25.4336 24.6123 24.9854 24.5565 24.7614 24.8912L22.9687 27.9589C22.7447 28.3493 23.1368 28.684 23.4169 28.684H26.9461C27.5063 28.6282 27.4503 28.0705 27.3942 28.0147L25.6016 24.8912Z" fill="white"/>
<path d="M24.4282 22.8266L22.4675 19.4801C22.2995 19.0896 21.7953 19.1454 21.6272 19.4243L16.5855 28.0696C16.3615 28.4043 16.6416 28.7947 17.0337 28.7947H20.955C21.0671 28.7947 21.2911 28.7389 21.4032 28.5158L24.4282 23.2729C24.4282 23.1613 24.4842 22.994 24.4282 22.8266Z" fill="white"/>
<path d="M32.3817 23.1617L34.2864 26.4525C34.3984 26.7872 34.9026 26.8987 35.1827 26.4525L43.1934 12.62C43.4175 12.2853 43.1934 11.8949 42.7453 11.8391H38.936C38.6559 11.8391 38.5438 12.0064 38.4318 12.2295L32.3817 22.604C32.3257 22.7155 32.2137 22.8828 32.3817 23.1617Z" fill="white"/>
<path d="M28.7981 19.2579C28.63 18.979 28.1819 18.9232 27.9578 19.2579L25.9971 22.6603C25.8851 22.8276 25.8851 22.9949 25.9971 23.1622L29.1342 28.461C29.3022 28.6841 29.4143 28.6841 29.5823 28.6841H33.3916C33.6717 28.6841 34.0078 28.3495 33.8398 27.959L28.7981 19.2579Z" fill="white"/>
<path d="M29.1877 17.6956L31.1484 21.0422C31.3165 21.3769 31.8206 21.3769 31.9887 21.098L36.9184 12.5642C37.0864 12.2853 36.9184 11.8949 36.4702 11.8391H32.6049C32.4368 11.8949 32.2688 11.9507 32.1567 12.118L29.1877 17.2494C29.1317 17.361 29.0757 17.4725 29.1877 17.6956Z" fill="white"/>
<path d="M38.3751 25.0025C38.207 24.7236 37.7589 24.6679 37.5348 25.0025L35.7422 28.0702C35.5181 28.4607 35.9102 28.7953 36.1903 28.7953H39.7195C40.2797 28.7395 40.2237 28.1818 40.1677 28.126L38.3751 25.0025Z" fill="white"/>
<path d="M39.5526 23.2173C39.2725 23.2173 38.8804 23.4962 39.1045 23.9424L40.8971 27.0101C41.1212 27.289 41.5693 27.289 41.7374 27.0101L43.53 23.8866C43.586 23.8308 43.642 23.2731 43.0818 23.2173L39.5526 23.2173Z" fill="white"/>
<path fill-rule="evenodd" clip-rule="evenodd" d="M162.31 3.05113H2.87338V37.8913H162.31V3.05113ZM0.339844 0.471191V40.4712H164.844V0.471191H0.339844Z" fill="white"/>
<path fill-rule="evenodd" clip-rule="evenodd" d="M52.556 3.05113H2.91978V37.8913H52.556V3.05113ZM0.339844 0.471191V40.4712H55.1359V0.471191H0.339844Z" fill="white"/>
</svg>
